<mxfile host="Electron" agent="Mozilla/5.0 (Windows NT 10.0; Win64; x64) AppleWebKit/537.36 (KHTML, like Gecko) draw.io/26.2.2 Chrome/134.0.6998.178 Electron/35.1.2 Safari/537.36" version="26.2.2" pages="8">
  <diagram name="Top Level" id="gSaMj9r_bIgpUZWunbMq">
    <mxGraphModel dx="2068" dy="1201" grid="1" gridSize="10" guides="1" tooltips="1" connect="1" arrows="1" fold="1" page="1" pageScale="1" pageWidth="850" pageHeight="1100" math="0" shadow="0">
      <root>
        <mxCell id="0" />
        <mxCell id="1" parent="0" />
        <mxCell id="ZdfBLmJmLp9qReuoNuhd-8" value="" style="edgeStyle=orthogonalEdgeStyle;rounded=0;orthogonalLoop=1;jettySize=auto;html=1;startArrow=classic;startFill=1;" parent="1" source="ZdfBLmJmLp9qReuoNuhd-1" target="ZdfBLmJmLp9qReuoNuhd-3" edge="1">
          <mxGeometry relative="1" as="geometry" />
        </mxCell>
        <mxCell id="ZdfBLmJmLp9qReuoNuhd-1" value="FE (Front End)" style="rounded=1;whiteSpace=wrap;html=1;fillColor=#cce5ff;strokeColor=#36393d;" parent="1" vertex="1">
          <mxGeometry x="150" y="280" width="120" height="60" as="geometry" />
        </mxCell>
        <mxCell id="ZdfBLmJmLp9qReuoNuhd-6" value="fe_cmd" style="edgeStyle=orthogonalEdgeStyle;rounded=0;orthogonalLoop=1;jettySize=auto;html=1;exitX=0;exitY=0.75;exitDx=0;exitDy=0;entryX=1;entryY=0.75;entryDx=0;entryDy=0;fontStyle=1" parent="1" source="ZdfBLmJmLp9qReuoNuhd-2" target="ZdfBLmJmLp9qReuoNuhd-1" edge="1">
          <mxGeometry relative="1" as="geometry" />
        </mxCell>
        <mxCell id="ZdfBLmJmLp9qReuoNuhd-9" value="" style="edgeStyle=orthogonalEdgeStyle;rounded=0;orthogonalLoop=1;jettySize=auto;html=1;startArrow=classic;startFill=1;" parent="1" source="ZdfBLmJmLp9qReuoNuhd-2" target="ZdfBLmJmLp9qReuoNuhd-3" edge="1">
          <mxGeometry relative="1" as="geometry" />
        </mxCell>
        <mxCell id="ZdfBLmJmLp9qReuoNuhd-2" value="BE (Back End)" style="rounded=1;whiteSpace=wrap;html=1;fillColor=#ffcc99;strokeColor=#36393d;" parent="1" vertex="1">
          <mxGeometry x="380" y="280" width="120" height="60" as="geometry" />
        </mxCell>
        <mxCell id="ZdfBLmJmLp9qReuoNuhd-3" value="ME (Memory End)" style="rounded=1;whiteSpace=wrap;html=1;" parent="1" vertex="1">
          <mxGeometry x="160" y="400" width="330" height="60" as="geometry" />
        </mxCell>
        <mxCell id="ZdfBLmJmLp9qReuoNuhd-5" value="" style="endArrow=classic;html=1;rounded=0;exitX=1;exitY=0.25;exitDx=0;exitDy=0;entryX=0;entryY=0.25;entryDx=0;entryDy=0;" parent="1" source="ZdfBLmJmLp9qReuoNuhd-1" target="ZdfBLmJmLp9qReuoNuhd-2" edge="1">
          <mxGeometry width="50" height="50" relative="1" as="geometry">
            <mxPoint x="250" y="630" as="sourcePoint" />
            <mxPoint x="300" y="580" as="targetPoint" />
          </mxGeometry>
        </mxCell>
        <mxCell id="ZdfBLmJmLp9qReuoNuhd-11" value="fe_queue" style="edgeLabel;html=1;align=center;verticalAlign=middle;resizable=0;points=[];fontStyle=1" parent="ZdfBLmJmLp9qReuoNuhd-5" vertex="1" connectable="0">
          <mxGeometry x="-0.0675" y="-1" relative="1" as="geometry">
            <mxPoint as="offset" />
          </mxGeometry>
        </mxCell>
        <mxCell id="ZdfBLmJmLp9qReuoNuhd-12" value="Out of Scope" style="rounded=0;whiteSpace=wrap;html=1;fillColor=none;dashed=1;dashPattern=8 8;labelPosition=center;verticalLabelPosition=bottom;align=center;verticalAlign=top;strokeColor=#FF0000;" parent="1" vertex="1">
          <mxGeometry x="140" y="380" width="370" height="100" as="geometry" />
        </mxCell>
        <mxCell id="ZdfBLmJmLp9qReuoNuhd-13" value="pc&lt;br&gt;inst&lt;br&gt;msg_type&lt;br&gt;count" style="text;html=1;align=left;verticalAlign=middle;resizable=0;points=[];autosize=1;strokeColor=default;" parent="1" vertex="1">
          <mxGeometry x="220" y="170" width="80" height="70" as="geometry" />
        </mxCell>
        <mxCell id="ZdfBLmJmLp9qReuoNuhd-14" value="pc_redirect&lt;div&gt;state_reset&lt;/div&gt;&lt;div&gt;wait&lt;/div&gt;&lt;div&gt;br_miss&lt;/div&gt;&lt;div&gt;eret&lt;/div&gt;&lt;div&gt;interrupt&lt;/div&gt;&lt;div&gt;trap&lt;/div&gt;&lt;div&gt;br_miss_taken&lt;/div&gt;&lt;div&gt;br_miss_ntaken&lt;/div&gt;&lt;div&gt;br_miss_nonbr&lt;/div&gt;" style="text;html=1;align=left;verticalAlign=middle;resizable=0;points=[];autosize=1;strokeColor=default;" parent="1" vertex="1">
          <mxGeometry x="370" y="90" width="110" height="160" as="geometry" />
        </mxCell>
        <mxCell id="n4LRniv7Hgu3o_SfoRni-1" value="" style="endArrow=none;dashed=1;html=1;rounded=0;" parent="1" edge="1">
          <mxGeometry width="50" height="50" relative="1" as="geometry">
            <mxPoint x="260" y="250" as="sourcePoint" />
            <mxPoint x="300" y="320" as="targetPoint" />
          </mxGeometry>
        </mxCell>
        <mxCell id="n4LRniv7Hgu3o_SfoRni-2" value="" style="endArrow=none;dashed=1;html=1;rounded=0;" parent="1" edge="1">
          <mxGeometry width="50" height="50" relative="1" as="geometry">
            <mxPoint x="390" y="260" as="sourcePoint" />
            <mxPoint x="340" y="290" as="targetPoint" />
          </mxGeometry>
        </mxCell>
      </root>
    </mxGraphModel>
  </diagram>
  <diagram id="Fex2aDe0NyIlUf6SwWkO" name="Front End">
    <mxGraphModel dx="838" dy="571" grid="1" gridSize="10" guides="1" tooltips="1" connect="1" arrows="1" fold="1" page="1" pageScale="1" pageWidth="850" pageHeight="1100" math="0" shadow="0">
      <root>
        <mxCell id="0" />
        <mxCell id="1" parent="0" />
        <mxCell id="5Do_AnMC29IlGybl_x2K-18" value="fe_queue" style="edgeStyle=orthogonalEdgeStyle;rounded=0;orthogonalLoop=1;jettySize=auto;html=1;" parent="1" source="5Do_AnMC29IlGybl_x2K-1" edge="1">
          <mxGeometry relative="1" as="geometry">
            <mxPoint x="560" y="750" as="targetPoint" />
          </mxGeometry>
        </mxCell>
        <mxCell id="5Do_AnMC29IlGybl_x2K-1" value="FE Controller" style="rounded=1;whiteSpace=wrap;html=1;labelPosition=center;verticalLabelPosition=middle;align=center;verticalAlign=middle;" parent="1" vertex="1">
          <mxGeometry x="340" y="720" width="120" height="60" as="geometry" />
        </mxCell>
        <mxCell id="5Do_AnMC29IlGybl_x2K-13" style="edgeStyle=orthogonalEdgeStyle;rounded=0;orthogonalLoop=1;jettySize=auto;html=1;entryX=0.5;entryY=0;entryDx=0;entryDy=0;" parent="1" source="5Do_AnMC29IlGybl_x2K-2" target="5Do_AnMC29IlGybl_x2K-5" edge="1">
          <mxGeometry relative="1" as="geometry" />
        </mxCell>
        <mxCell id="5Do_AnMC29IlGybl_x2K-2" value="PC Gen" style="rounded=1;whiteSpace=wrap;html=1;labelPosition=center;verticalLabelPosition=middle;align=center;verticalAlign=middle;" parent="1" vertex="1">
          <mxGeometry x="340" y="390" width="120" height="60" as="geometry" />
        </mxCell>
        <mxCell id="5Do_AnMC29IlGybl_x2K-7" value="" style="edgeStyle=orthogonalEdgeStyle;rounded=0;orthogonalLoop=1;jettySize=auto;html=1;startArrow=classic;startFill=1;" parent="1" source="5Do_AnMC29IlGybl_x2K-3" target="5Do_AnMC29IlGybl_x2K-2" edge="1">
          <mxGeometry relative="1" as="geometry" />
        </mxCell>
        <mxCell id="5Do_AnMC29IlGybl_x2K-21" style="edgeStyle=orthogonalEdgeStyle;rounded=0;orthogonalLoop=1;jettySize=auto;html=1;entryX=0.5;entryY=0;entryDx=0;entryDy=0;" parent="1" source="5Do_AnMC29IlGybl_x2K-3" target="5Do_AnMC29IlGybl_x2K-20" edge="1">
          <mxGeometry relative="1" as="geometry" />
        </mxCell>
        <mxCell id="5Do_AnMC29IlGybl_x2K-3" value="MMU" style="rounded=1;whiteSpace=wrap;html=1;labelPosition=center;verticalLabelPosition=middle;align=center;verticalAlign=middle;" parent="1" vertex="1">
          <mxGeometry x="190" y="390" width="120" height="60" as="geometry" />
        </mxCell>
        <mxCell id="5Do_AnMC29IlGybl_x2K-8" value="" style="edgeStyle=orthogonalEdgeStyle;rounded=0;orthogonalLoop=1;jettySize=auto;html=1;startArrow=classic;startFill=1;" parent="1" source="5Do_AnMC29IlGybl_x2K-4" target="5Do_AnMC29IlGybl_x2K-3" edge="1">
          <mxGeometry relative="1" as="geometry" />
        </mxCell>
        <mxCell id="5Do_AnMC29IlGybl_x2K-4" value="I$" style="rounded=1;whiteSpace=wrap;html=1;labelPosition=center;verticalLabelPosition=middle;align=center;verticalAlign=middle;" parent="1" vertex="1">
          <mxGeometry x="40" y="390" width="120" height="60" as="geometry" />
        </mxCell>
        <mxCell id="5Do_AnMC29IlGybl_x2K-15" value="Assembled Instructions" style="edgeStyle=orthogonalEdgeStyle;rounded=0;orthogonalLoop=1;jettySize=auto;html=1;" parent="1" source="5Do_AnMC29IlGybl_x2K-5" target="5Do_AnMC29IlGybl_x2K-6" edge="1">
          <mxGeometry relative="1" as="geometry" />
        </mxCell>
        <mxCell id="5Do_AnMC29IlGybl_x2K-5" value="Realigner" style="rounded=1;whiteSpace=wrap;html=1;labelPosition=center;verticalLabelPosition=middle;align=center;verticalAlign=middle;fontStyle=0" parent="1" vertex="1">
          <mxGeometry x="340" y="500" width="120" height="60" as="geometry" />
        </mxCell>
        <mxCell id="5Do_AnMC29IlGybl_x2K-16" value="Fetched Instruction" style="edgeStyle=orthogonalEdgeStyle;rounded=0;orthogonalLoop=1;jettySize=auto;html=1;entryX=0.5;entryY=0;entryDx=0;entryDy=0;" parent="1" source="5Do_AnMC29IlGybl_x2K-6" target="5Do_AnMC29IlGybl_x2K-1" edge="1">
          <mxGeometry relative="1" as="geometry">
            <mxPoint x="400" y="710" as="targetPoint" />
          </mxGeometry>
        </mxCell>
        <mxCell id="5Do_AnMC29IlGybl_x2K-6" value="Scan" style="rounded=1;whiteSpace=wrap;html=1;labelPosition=center;verticalLabelPosition=middle;align=center;verticalAlign=middle;" parent="1" vertex="1">
          <mxGeometry x="340" y="600" width="120" height="60" as="geometry" />
        </mxCell>
        <mxCell id="5Do_AnMC29IlGybl_x2K-10" value="" style="endArrow=classic;html=1;rounded=0;entryX=1.002;entryY=0.147;entryDx=0;entryDy=0;entryPerimeter=0;" parent="1" target="5Do_AnMC29IlGybl_x2K-2" edge="1">
          <mxGeometry width="50" height="50" relative="1" as="geometry">
            <mxPoint x="570" y="400" as="sourcePoint" />
            <mxPoint x="510" y="440" as="targetPoint" />
          </mxGeometry>
        </mxCell>
        <mxCell id="5Do_AnMC29IlGybl_x2K-11" value="PC" style="edgeLabel;html=1;align=center;verticalAlign=middle;resizable=0;points=[];" parent="5Do_AnMC29IlGybl_x2K-10" vertex="1" connectable="0">
          <mxGeometry x="-0.5409" relative="1" as="geometry">
            <mxPoint as="offset" />
          </mxGeometry>
        </mxCell>
        <mxCell id="5Do_AnMC29IlGybl_x2K-12" value="Virtually-Index, Physically Tagged&lt;div&gt;1 - 8 way set-associative&lt;/div&gt;&lt;div&gt;64 - 512 bit block size&lt;/div&gt;" style="text;html=1;align=left;verticalAlign=middle;whiteSpace=wrap;rounded=0;strokeColor=default;" parent="1" vertex="1">
          <mxGeometry x="30" y="270" width="200" height="70" as="geometry" />
        </mxCell>
        <mxCell id="5Do_AnMC29IlGybl_x2K-17" value="Scans Instructions (aligned, compressed, normal)" style="text;html=1;align=left;verticalAlign=middle;whiteSpace=wrap;rounded=0;strokeColor=default;" parent="1" vertex="1">
          <mxGeometry x="500" y="595" width="130" height="65" as="geometry" />
        </mxCell>
        <mxCell id="5Do_AnMC29IlGybl_x2K-19" value="instr_fetch&lt;div&gt;itlb_miss&lt;/div&gt;&lt;div&gt;instr_page_fault&lt;/div&gt;&lt;div&gt;instr_access_fault&lt;/div&gt;&lt;div&gt;icache_miss&lt;/div&gt;" style="text;html=1;align=left;verticalAlign=middle;whiteSpace=wrap;rounded=0;strokeColor=default;" parent="1" vertex="1">
          <mxGeometry x="480" y="800" width="130" height="90" as="geometry" />
        </mxCell>
        <mxCell id="5Do_AnMC29IlGybl_x2K-22" value="" style="edgeStyle=orthogonalEdgeStyle;rounded=0;orthogonalLoop=1;jettySize=auto;html=1;" parent="1" source="5Do_AnMC29IlGybl_x2K-20" target="5Do_AnMC29IlGybl_x2K-1" edge="1">
          <mxGeometry relative="1" as="geometry" />
        </mxCell>
        <mxCell id="5Do_AnMC29IlGybl_x2K-20" value="Exception Pipe (1 Clock Cycles)" style="rounded=1;whiteSpace=wrap;html=1;labelPosition=center;verticalLabelPosition=middle;align=center;verticalAlign=middle;" parent="1" vertex="1">
          <mxGeometry x="190" y="720" width="120" height="60" as="geometry" />
        </mxCell>
        <mxCell id="1EQpkVD4WTKMlv6eUZim-1" value="&lt;div&gt;itlb_miss&lt;/div&gt;&lt;div&gt;instr_page_fault&lt;/div&gt;&lt;div&gt;instr_access_fault&lt;/div&gt;" style="text;html=1;align=left;verticalAlign=middle;whiteSpace=wrap;rounded=0;strokeColor=default;" parent="1" vertex="1">
          <mxGeometry x="80" y="602.5" width="110" height="50" as="geometry" />
        </mxCell>
        <mxCell id="h2Kqx76IrO2Ful2E2gfY-2" value="" style="endArrow=none;dashed=1;html=1;rounded=0;exitX=0.5;exitY=1;exitDx=0;exitDy=0;entryX=0.5;entryY=0;entryDx=0;entryDy=0;" edge="1" parent="1" source="5Do_AnMC29IlGybl_x2K-12" target="5Do_AnMC29IlGybl_x2K-4">
          <mxGeometry width="50" height="50" relative="1" as="geometry">
            <mxPoint x="260" y="250" as="sourcePoint" />
            <mxPoint x="300" y="320" as="targetPoint" />
          </mxGeometry>
        </mxCell>
        <mxCell id="h2Kqx76IrO2Ful2E2gfY-3" value="" style="endArrow=none;dashed=1;html=1;rounded=0;entryX=1;entryY=0.5;entryDx=0;entryDy=0;" edge="1" parent="1" target="1EQpkVD4WTKMlv6eUZim-1">
          <mxGeometry width="50" height="50" relative="1" as="geometry">
            <mxPoint x="250" y="620" as="sourcePoint" />
            <mxPoint x="310" y="330" as="targetPoint" />
          </mxGeometry>
        </mxCell>
        <mxCell id="h2Kqx76IrO2Ful2E2gfY-4" value="" style="endArrow=none;dashed=1;html=1;rounded=0;entryX=1;entryY=0.5;entryDx=0;entryDy=0;" edge="1" parent="1" source="5Do_AnMC29IlGybl_x2K-17" target="5Do_AnMC29IlGybl_x2K-6">
          <mxGeometry width="50" height="50" relative="1" as="geometry">
            <mxPoint x="280" y="270" as="sourcePoint" />
            <mxPoint x="320" y="340" as="targetPoint" />
          </mxGeometry>
        </mxCell>
        <mxCell id="h2Kqx76IrO2Ful2E2gfY-5" value="" style="endArrow=none;dashed=1;html=1;rounded=0;entryX=0.5;entryY=0;entryDx=0;entryDy=0;" edge="1" parent="1" target="5Do_AnMC29IlGybl_x2K-19">
          <mxGeometry width="50" height="50" relative="1" as="geometry">
            <mxPoint x="520" y="760" as="sourcePoint" />
            <mxPoint x="330" y="350" as="targetPoint" />
          </mxGeometry>
        </mxCell>
      </root>
    </mxGraphModel>
  </diagram>
  <diagram id="BfWlYmMmu0L30tgS9wli" name="Back End">
    <mxGraphModel dx="3447" dy="2002" grid="1" gridSize="10" guides="1" tooltips="1" connect="1" arrows="1" fold="1" page="1" pageScale="1" pageWidth="850" pageHeight="1100" math="0" shadow="0">
      <root>
        <mxCell id="0" />
        <mxCell id="1" parent="0" />
        <mxCell id="krLTCR8n1Ns8TSGt49DA-22" value="Director" style="rounded=1;whiteSpace=wrap;html=1;labelPosition=center;verticalLabelPosition=top;align=center;verticalAlign=bottom;" parent="1" vertex="1">
          <mxGeometry x="1150" y="155" width="420" height="310" as="geometry" />
        </mxCell>
        <mxCell id="krLTCR8n1Ns8TSGt49DA-23" value="Detector" style="rounded=1;whiteSpace=wrap;html=1;labelPosition=center;verticalLabelPosition=top;align=center;verticalAlign=bottom;" parent="1" vertex="1">
          <mxGeometry x="230" y="1220" width="370" height="420" as="geometry" />
        </mxCell>
        <mxCell id="krLTCR8n1Ns8TSGt49DA-25" value="Scheduler" style="rounded=1;whiteSpace=wrap;html=1;labelPosition=center;verticalLabelPosition=top;align=center;verticalAlign=bottom;" parent="1" vertex="1">
          <mxGeometry x="220" y="60" width="470" height="580" as="geometry" />
        </mxCell>
        <mxCell id="krLTCR8n1Ns8TSGt49DA-30" value="fe_queue" style="endArrow=classic;html=1;rounded=0;entryX=0;entryY=0.5;entryDx=0;entryDy=0;" parent="1" target="krLTCR8n1Ns8TSGt49DA-32" edge="1">
          <mxGeometry width="50" height="50" relative="1" as="geometry">
            <mxPoint x="80" y="160" as="sourcePoint" />
            <mxPoint x="220" y="160" as="targetPoint" />
          </mxGeometry>
        </mxCell>
        <mxCell id="krLTCR8n1Ns8TSGt49DA-31" value="Issue Queue" style="rounded=1;whiteSpace=wrap;html=1;labelPosition=center;verticalLabelPosition=top;align=center;verticalAlign=bottom;dashed=1;dashPattern=8 8;" parent="1" vertex="1">
          <mxGeometry x="270" y="100" width="170" height="210" as="geometry" />
        </mxCell>
        <mxCell id="krLTCR8n1Ns8TSGt49DA-32" value="FIFO" style="rounded=1;whiteSpace=wrap;html=1;" parent="1" vertex="1">
          <mxGeometry x="295" y="130" width="120" height="60" as="geometry" />
        </mxCell>
        <mxCell id="8k8uYrVaryOAXli8iLL7-4" style="edgeStyle=orthogonalEdgeStyle;rounded=0;orthogonalLoop=1;jettySize=auto;html=1;" parent="1" source="krLTCR8n1Ns8TSGt49DA-34" target="8k8uYrVaryOAXli8iLL7-1" edge="1">
          <mxGeometry relative="1" as="geometry" />
        </mxCell>
        <mxCell id="krLTCR8n1Ns8TSGt49DA-34" value="Preissue FIFO" style="rounded=1;whiteSpace=wrap;html=1;" parent="1" vertex="1">
          <mxGeometry x="295" y="220" width="120" height="60" as="geometry" />
        </mxCell>
        <mxCell id="krLTCR8n1Ns8TSGt49DA-37" value="" style="group" parent="1" vertex="1" connectable="0">
          <mxGeometry x="220" y="160" width="30" height="90" as="geometry" />
        </mxCell>
        <mxCell id="krLTCR8n1Ns8TSGt49DA-33" value="" style="endArrow=classic;html=1;rounded=0;entryX=0;entryY=0.5;entryDx=0;entryDy=0;" parent="krLTCR8n1Ns8TSGt49DA-37" target="krLTCR8n1Ns8TSGt49DA-32" edge="1">
          <mxGeometry width="50" height="50" relative="1" as="geometry">
            <mxPoint as="sourcePoint" />
            <mxPoint x="150" y="40" as="targetPoint" />
          </mxGeometry>
        </mxCell>
        <mxCell id="krLTCR8n1Ns8TSGt49DA-35" value="" style="endArrow=classic;html=1;rounded=0;entryX=0;entryY=0.5;entryDx=0;entryDy=0;" parent="krLTCR8n1Ns8TSGt49DA-37" target="krLTCR8n1Ns8TSGt49DA-34" edge="1">
          <mxGeometry width="50" height="50" relative="1" as="geometry">
            <mxPoint x="30" y="90" as="sourcePoint" />
            <mxPoint x="100" as="targetPoint" />
          </mxGeometry>
        </mxCell>
        <mxCell id="krLTCR8n1Ns8TSGt49DA-36" value="" style="endArrow=none;html=1;rounded=0;" parent="krLTCR8n1Ns8TSGt49DA-37" edge="1">
          <mxGeometry width="50" height="50" relative="1" as="geometry">
            <mxPoint x="30" y="90" as="sourcePoint" />
            <mxPoint x="30" as="targetPoint" />
          </mxGeometry>
        </mxCell>
        <mxCell id="krLTCR8n1Ns8TSGt49DA-39" value="issue_pkt" style="endArrow=classic;html=1;rounded=0;exitX=1;exitY=0.5;exitDx=0;exitDy=0;entryX=0;entryY=0.25;entryDx=0;entryDy=0;" parent="1" source="krLTCR8n1Ns8TSGt49DA-32" target="8k8uYrVaryOAXli8iLL7-2" edge="1">
          <mxGeometry width="50" height="50" relative="1" as="geometry">
            <mxPoint x="415" y="170" as="sourcePoint" />
            <mxPoint x="410" y="300" as="targetPoint" />
            <Array as="points">
              <mxPoint x="490" y="160" />
            </Array>
          </mxGeometry>
        </mxCell>
        <mxCell id="8k8uYrVaryOAXli8iLL7-3" style="edgeStyle=orthogonalEdgeStyle;rounded=0;orthogonalLoop=1;jettySize=auto;html=1;entryX=0;entryY=0.5;entryDx=0;entryDy=0;" parent="1" source="8k8uYrVaryOAXli8iLL7-1" target="8k8uYrVaryOAXli8iLL7-2" edge="1">
          <mxGeometry relative="1" as="geometry">
            <Array as="points">
              <mxPoint x="530" y="250" />
              <mxPoint x="530" y="175" />
            </Array>
          </mxGeometry>
        </mxCell>
        <mxCell id="8k8uYrVaryOAXli8iLL7-1" value="Register File" style="rounded=1;whiteSpace=wrap;html=1;" parent="1" vertex="1">
          <mxGeometry x="460" y="220" width="50" height="60" as="geometry" />
        </mxCell>
        <mxCell id="8k8uYrVaryOAXli8iLL7-5" value="dispatch_pkt" style="edgeStyle=orthogonalEdgeStyle;rounded=0;orthogonalLoop=1;jettySize=auto;html=1;" parent="1" source="8k8uYrVaryOAXli8iLL7-2" edge="1">
          <mxGeometry relative="1" as="geometry">
            <mxPoint x="740" y="175" as="targetPoint" />
            <Array as="points">
              <mxPoint x="740" y="175" />
            </Array>
          </mxGeometry>
        </mxCell>
        <mxCell id="8k8uYrVaryOAXli8iLL7-2" value="comb" style="rounded=1;whiteSpace=wrap;html=1;" parent="1" vertex="1">
          <mxGeometry x="560" y="145" width="50" height="60" as="geometry" />
        </mxCell>
        <mxCell id="8k8uYrVaryOAXli8iLL7-7" value="clear_iss" style="endArrow=classic;html=1;rounded=0;" parent="1" edge="1">
          <mxGeometry width="50" height="50" relative="1" as="geometry">
            <mxPoint x="80" y="350" as="sourcePoint" />
            <mxPoint x="220" y="350" as="targetPoint" />
          </mxGeometry>
        </mxCell>
        <mxCell id="8k8uYrVaryOAXli8iLL7-9" value="hazard" style="endArrow=classic;html=1;rounded=0;" parent="1" edge="1">
          <mxGeometry width="50" height="50" relative="1" as="geometry">
            <mxPoint x="80" y="300" as="sourcePoint" />
            <mxPoint x="220" y="300" as="targetPoint" />
          </mxGeometry>
        </mxCell>
        <mxCell id="8k8uYrVaryOAXli8iLL7-11" value="Disable issue queue" style="text;html=1;align=center;verticalAlign=middle;resizable=0;points=[];autosize=1;strokeColor=none;fillColor=none;" parent="1" vertex="1">
          <mxGeometry x="80" y="300" width="130" height="30" as="geometry" />
        </mxCell>
        <mxCell id="8k8uYrVaryOAXli8iLL7-12" value="Clear issue queue" style="text;html=1;align=center;verticalAlign=middle;resizable=0;points=[];autosize=1;strokeColor=none;fillColor=none;" parent="1" vertex="1">
          <mxGeometry x="90" y="350" width="120" height="30" as="geometry" />
        </mxCell>
        <mxCell id="8k8uYrVaryOAXli8iLL7-13" value="Deassert dispatch_pkt&lt;span style=&quot;background-color: transparent; color: light-dark(rgb(0, 0, 0), rgb(255, 255, 255)); white-space-collapse: preserve;&quot;&gt;&#x9;&lt;/span&gt;" style="text;html=1;align=center;verticalAlign=middle;resizable=0;points=[];autosize=1;strokeColor=none;fillColor=none;" parent="1" vertex="1">
          <mxGeometry x="70" y="390" width="160" height="30" as="geometry" />
        </mxCell>
        <mxCell id="8k8uYrVaryOAXli8iLL7-14" value="hazard" style="endArrow=classic;html=1;rounded=0;" parent="1" edge="1">
          <mxGeometry width="50" height="50" relative="1" as="geometry">
            <mxPoint x="80" y="300" as="sourcePoint" />
            <mxPoint x="220" y="300" as="targetPoint" />
          </mxGeometry>
        </mxCell>
        <mxCell id="8k8uYrVaryOAXli8iLL7-15" value="Poison" style="endArrow=classic;html=1;rounded=0;entryX=0;entryY=0.75;entryDx=0;entryDy=0;exitX=0.942;exitY=0;exitDx=0;exitDy=0;exitPerimeter=0;" parent="1" source="8k8uYrVaryOAXli8iLL7-13" target="8k8uYrVaryOAXli8iLL7-2" edge="1">
          <mxGeometry x="-0.0013" width="50" height="50" relative="1" as="geometry">
            <mxPoint x="340" y="411" as="sourcePoint" />
            <mxPoint x="550" y="400" as="targetPoint" />
            <Array as="points">
              <mxPoint x="540" y="390" />
              <mxPoint x="540" y="190" />
            </Array>
            <mxPoint as="offset" />
          </mxGeometry>
        </mxCell>
        <mxCell id="8k8uYrVaryOAXli8iLL7-26" value="poison" style="endArrow=classic;html=1;rounded=0;" parent="1" edge="1">
          <mxGeometry x="0.0084" width="50" height="50" relative="1" as="geometry">
            <mxPoint x="80" y="390" as="sourcePoint" />
            <mxPoint x="220" y="390" as="targetPoint" />
            <mxPoint as="offset" />
          </mxGeometry>
        </mxCell>
        <mxCell id="8k8uYrVaryOAXli8iLL7-27" value="" style="endArrow=classic;html=1;rounded=0;" parent="1" edge="1">
          <mxGeometry width="50" height="50" relative="1" as="geometry">
            <mxPoint x="530" y="160" as="sourcePoint" />
            <mxPoint x="740" y="110" as="targetPoint" />
            <Array as="points">
              <mxPoint x="530" y="110" />
            </Array>
          </mxGeometry>
        </mxCell>
        <mxCell id="8k8uYrVaryOAXli8iLL7-28" value="issue_pkt" style="edgeLabel;html=1;align=center;verticalAlign=middle;resizable=0;points=[];" parent="8k8uYrVaryOAXli8iLL7-27" vertex="1" connectable="0">
          <mxGeometry x="0.6" y="3" relative="1" as="geometry">
            <mxPoint x="-8" as="offset" />
          </mxGeometry>
        </mxCell>
        <mxCell id="8k8uYrVaryOAXli8iLL7-29" value="issue_pkt" style="endArrow=classic;html=1;rounded=0;" parent="1" edge="1">
          <mxGeometry width="50" height="50" relative="1" as="geometry">
            <mxPoint x="1080" y="245" as="sourcePoint" />
            <mxPoint x="1200" y="245" as="targetPoint" />
          </mxGeometry>
        </mxCell>
        <mxCell id="8k8uYrVaryOAXli8iLL7-30" value="br_pkt" style="endArrow=classic;html=1;rounded=0;" parent="1" edge="1">
          <mxGeometry width="50" height="50" relative="1" as="geometry">
            <mxPoint x="1080" y="275" as="sourcePoint" />
            <mxPoint x="1200" y="275" as="targetPoint" />
          </mxGeometry>
        </mxCell>
        <mxCell id="8k8uYrVaryOAXli8iLL7-32" value="commit_pkt" style="endArrow=classic;html=1;rounded=0;" parent="1" edge="1">
          <mxGeometry width="50" height="50" relative="1" as="geometry">
            <mxPoint x="1080" y="305" as="sourcePoint" />
            <mxPoint x="1200" y="305" as="targetPoint" />
          </mxGeometry>
        </mxCell>
        <mxCell id="8k8uYrVaryOAXli8iLL7-33" value="poison_isd" style="endArrow=classic;html=1;rounded=0;" parent="1" edge="1">
          <mxGeometry x="0.6308" width="50" height="50" relative="1" as="geometry">
            <mxPoint x="1265" y="295" as="sourcePoint" />
            <mxPoint x="1590" y="295" as="targetPoint" />
            <mxPoint as="offset" />
          </mxGeometry>
        </mxCell>
        <mxCell id="8k8uYrVaryOAXli8iLL7-34" value="npc check" style="rounded=1;whiteSpace=wrap;html=1;" parent="1" vertex="1">
          <mxGeometry x="1200" y="214" width="65" height="120" as="geometry" />
        </mxCell>
        <mxCell id="8k8uYrVaryOAXli8iLL7-36" value="" style="endArrow=classic;html=1;rounded=0;entryX=0.5;entryY=0;entryDx=0;entryDy=0;exitX=1;exitY=0.5;exitDx=0;exitDy=0;" parent="1" source="8k8uYrVaryOAXli8iLL7-34" target="8k8uYrVaryOAXli8iLL7-34" edge="1">
          <mxGeometry width="50" height="50" relative="1" as="geometry">
            <mxPoint x="1290" y="174" as="sourcePoint" />
            <mxPoint x="1410" y="214" as="targetPoint" />
            <Array as="points">
              <mxPoint x="1290" y="274" />
              <mxPoint x="1290" y="234" />
              <mxPoint x="1290" y="194" />
              <mxPoint x="1233" y="194" />
            </Array>
          </mxGeometry>
        </mxCell>
        <mxCell id="8k8uYrVaryOAXli8iLL7-38" value="" style="endArrow=classic;html=1;rounded=0;" parent="1" edge="1">
          <mxGeometry width="50" height="50" relative="1" as="geometry">
            <mxPoint x="1290" y="254" as="sourcePoint" />
            <mxPoint x="1590" y="254" as="targetPoint" />
          </mxGeometry>
        </mxCell>
        <mxCell id="8k8uYrVaryOAXli8iLL7-40" value="expected_npc" style="edgeLabel;html=1;align=center;verticalAlign=middle;resizable=0;points=[];" parent="8k8uYrVaryOAXli8iLL7-38" vertex="1" connectable="0">
          <mxGeometry x="-0.1754" y="-1" relative="1" as="geometry">
            <mxPoint x="111" as="offset" />
          </mxGeometry>
        </mxCell>
        <mxCell id="8k8uYrVaryOAXli8iLL7-43" value="fe_cmd" style="endArrow=classic;html=1;rounded=0;exitX=1;exitY=0.5;exitDx=0;exitDy=0;" parent="1" source="8k8uYrVaryOAXli8iLL7-44" edge="1">
          <mxGeometry x="0.1667" width="50" height="50" relative="1" as="geometry">
            <mxPoint x="1290" y="385" as="sourcePoint" />
            <mxPoint x="1590" y="385" as="targetPoint" />
            <Array as="points" />
            <mxPoint as="offset" />
          </mxGeometry>
        </mxCell>
        <mxCell id="8k8uYrVaryOAXli8iLL7-44" value="commit_pkt checks" style="rounded=1;whiteSpace=wrap;html=1;" parent="1" vertex="1">
          <mxGeometry x="1200" y="345" width="270" height="80" as="geometry" />
        </mxCell>
        <mxCell id="8k8uYrVaryOAXli8iLL7-47" value="" style="endArrow=classic;html=1;rounded=0;entryX=0;entryY=0.5;entryDx=0;entryDy=0;" parent="1" target="8k8uYrVaryOAXli8iLL7-44" edge="1">
          <mxGeometry width="50" height="50" relative="1" as="geometry">
            <mxPoint x="1180" y="305" as="sourcePoint" />
            <mxPoint x="1240" y="385" as="targetPoint" />
            <Array as="points">
              <mxPoint x="1180" y="385" />
            </Array>
          </mxGeometry>
        </mxCell>
        <mxCell id="8k8uYrVaryOAXli8iLL7-48" value="commit_pkt:&lt;div&gt;&lt;ul&gt;&lt;li&gt;freeze&lt;/li&gt;&lt;li&gt;itlb_fill&lt;/li&gt;&lt;li&gt;sfence&lt;/li&gt;&lt;li&gt;csrw&lt;/li&gt;&lt;li&gt;wfi&lt;/li&gt;&lt;li&gt;icache_miss&lt;/li&gt;&lt;li&gt;eret&lt;/li&gt;&lt;li&gt;nps_mismatch&lt;/li&gt;&lt;/ul&gt;&lt;/div&gt;&lt;div&gt;attaboy (correct prediction)&lt;/div&gt;" style="text;html=1;align=left;verticalAlign=middle;resizable=0;points=[];autosize=1;strokeColor=default;fillColor=none;" parent="1" vertex="1">
          <mxGeometry x="950" y="365" width="170" height="180" as="geometry" />
        </mxCell>
        <mxCell id="gA_NJuyqVtPFc1KAvtDb-1" value="" style="endArrow=classic;html=1;rounded=0;entryX=0;entryY=0.5;entryDx=0;entryDy=0;" parent="1" target="gA_NJuyqVtPFc1KAvtDb-3" edge="1">
          <mxGeometry width="50" height="50" relative="1" as="geometry">
            <mxPoint x="20" y="1460" as="sourcePoint" />
            <mxPoint x="230" y="1460" as="targetPoint" />
            <Array as="points">
              <mxPoint x="20" y="1460" />
            </Array>
          </mxGeometry>
        </mxCell>
        <mxCell id="gA_NJuyqVtPFc1KAvtDb-2" value="issue_pkt" style="edgeLabel;html=1;align=center;verticalAlign=middle;resizable=0;points=[];" parent="gA_NJuyqVtPFc1KAvtDb-1" vertex="1" connectable="0">
          <mxGeometry x="0.6" y="3" relative="1" as="geometry">
            <mxPoint x="-30" y="3" as="offset" />
          </mxGeometry>
        </mxCell>
        <mxCell id="gA_NJuyqVtPFc1KAvtDb-3" value="Hazard Detection" style="rounded=1;whiteSpace=wrap;html=1;" parent="1" vertex="1">
          <mxGeometry x="250" y="1430" width="125" height="60" as="geometry" />
        </mxCell>
        <mxCell id="gA_NJuyqVtPFc1KAvtDb-4" value="" style="endArrow=classic;html=1;rounded=0;entryX=0;entryY=0.5;entryDx=0;entryDy=0;" parent="1" edge="1">
          <mxGeometry width="50" height="50" relative="1" as="geometry">
            <mxPoint x="20" y="1550" as="sourcePoint" />
            <mxPoint x="245" y="1550" as="targetPoint" />
            <Array as="points">
              <mxPoint x="20" y="1550" />
            </Array>
          </mxGeometry>
        </mxCell>
        <mxCell id="gA_NJuyqVtPFc1KAvtDb-5" value="dispatch_pkt" style="edgeLabel;html=1;align=center;verticalAlign=middle;resizable=0;points=[];" parent="gA_NJuyqVtPFc1KAvtDb-4" vertex="1" connectable="0">
          <mxGeometry x="0.6" y="3" relative="1" as="geometry">
            <mxPoint x="-30" y="3" as="offset" />
          </mxGeometry>
        </mxCell>
        <mxCell id="gA_NJuyqVtPFc1KAvtDb-9" value="" style="edgeStyle=orthogonalEdgeStyle;rounded=0;orthogonalLoop=1;jettySize=auto;html=1;" parent="1" source="gA_NJuyqVtPFc1KAvtDb-7" target="gA_NJuyqVtPFc1KAvtDb-8" edge="1">
          <mxGeometry relative="1" as="geometry" />
        </mxCell>
        <mxCell id="gA_NJuyqVtPFc1KAvtDb-7" value="dep_status" style="rounded=1;whiteSpace=wrap;html=1;" parent="1" vertex="1">
          <mxGeometry x="245" y="1520" width="65" height="60" as="geometry" />
        </mxCell>
        <mxCell id="gA_NJuyqVtPFc1KAvtDb-12" value="" style="edgeStyle=orthogonalEdgeStyle;rounded=0;orthogonalLoop=1;jettySize=auto;html=1;" parent="1" source="gA_NJuyqVtPFc1KAvtDb-8" target="gA_NJuyqVtPFc1KAvtDb-11" edge="1">
          <mxGeometry relative="1" as="geometry" />
        </mxCell>
        <mxCell id="gA_NJuyqVtPFc1KAvtDb-8" value="dep_status" style="rounded=1;whiteSpace=wrap;html=1;" parent="1" vertex="1">
          <mxGeometry x="333" y="1520" width="65" height="60" as="geometry" />
        </mxCell>
        <mxCell id="gA_NJuyqVtPFc1KAvtDb-14" value="" style="edgeStyle=orthogonalEdgeStyle;rounded=0;orthogonalLoop=1;jettySize=auto;html=1;" parent="1" source="gA_NJuyqVtPFc1KAvtDb-11" target="gA_NJuyqVtPFc1KAvtDb-13" edge="1">
          <mxGeometry relative="1" as="geometry" />
        </mxCell>
        <mxCell id="gA_NJuyqVtPFc1KAvtDb-11" value="dep_status" style="rounded=1;whiteSpace=wrap;html=1;" parent="1" vertex="1">
          <mxGeometry x="420" y="1520" width="65" height="60" as="geometry" />
        </mxCell>
        <mxCell id="gA_NJuyqVtPFc1KAvtDb-13" value="dep_status" style="rounded=1;whiteSpace=wrap;html=1;" parent="1" vertex="1">
          <mxGeometry x="510" y="1520" width="65" height="60" as="geometry" />
        </mxCell>
        <mxCell id="gA_NJuyqVtPFc1KAvtDb-15" value="Int Scoreboard" style="rounded=1;whiteSpace=wrap;html=1;" parent="1" vertex="1">
          <mxGeometry x="322.5" y="1290" width="125" height="60" as="geometry" />
        </mxCell>
        <mxCell id="gA_NJuyqVtPFc1KAvtDb-16" value="FP Scoreboard" style="rounded=1;whiteSpace=wrap;html=1;" parent="1" vertex="1">
          <mxGeometry x="322.5" y="1350" width="125" height="60" as="geometry" />
        </mxCell>
        <mxCell id="gA_NJuyqVtPFc1KAvtDb-17" value="" style="endArrow=classic;html=1;rounded=0;" parent="1" edge="1">
          <mxGeometry width="50" height="50" relative="1" as="geometry">
            <mxPoint x="100" y="1340" as="sourcePoint" />
            <mxPoint x="245" y="1340" as="targetPoint" />
          </mxGeometry>
        </mxCell>
        <mxCell id="gA_NJuyqVtPFc1KAvtDb-18" value="commit_pkt" style="edgeLabel;html=1;align=center;verticalAlign=middle;resizable=0;points=[];" parent="gA_NJuyqVtPFc1KAvtDb-17" vertex="1" connectable="0">
          <mxGeometry x="0.6" y="3" relative="1" as="geometry">
            <mxPoint x="-46" as="offset" />
          </mxGeometry>
        </mxCell>
        <mxCell id="gA_NJuyqVtPFc1KAvtDb-19" value="" style="endArrow=classic;html=1;rounded=0;entryX=0;entryY=0.5;entryDx=0;entryDy=0;" parent="1" edge="1">
          <mxGeometry width="50" height="50" relative="1" as="geometry">
            <mxPoint x="100" y="1360" as="sourcePoint" />
            <mxPoint x="245" y="1360" as="targetPoint" />
          </mxGeometry>
        </mxCell>
        <mxCell id="gA_NJuyqVtPFc1KAvtDb-20" value="late_wb_pkt" style="edgeLabel;html=1;align=center;verticalAlign=middle;resizable=0;points=[];" parent="gA_NJuyqVtPFc1KAvtDb-19" vertex="1" connectable="0">
          <mxGeometry x="0.6" y="3" relative="1" as="geometry">
            <mxPoint x="-46" as="offset" />
          </mxGeometry>
        </mxCell>
        <mxCell id="gA_NJuyqVtPFc1KAvtDb-30" value="score" style="endArrow=classic;html=1;rounded=0;exitX=0.449;exitY=0.333;exitDx=0;exitDy=0;exitPerimeter=0;" parent="1" edge="1">
          <mxGeometry width="50" height="50" relative="1" as="geometry">
            <mxPoint x="262.5" y="1314.21" as="sourcePoint" />
            <mxPoint x="322.5" y="1314.21" as="targetPoint" />
          </mxGeometry>
        </mxCell>
        <mxCell id="gA_NJuyqVtPFc1KAvtDb-31" value="clear" style="endArrow=classic;html=1;rounded=0;" parent="1" edge="1">
          <mxGeometry width="50" height="50" relative="1" as="geometry">
            <mxPoint x="262.5" y="1325.21" as="sourcePoint" />
            <mxPoint x="322.5" y="1325.21" as="targetPoint" />
          </mxGeometry>
        </mxCell>
        <mxCell id="gA_NJuyqVtPFc1KAvtDb-32" value="score" style="endArrow=classic;html=1;rounded=0;exitX=0.449;exitY=0.333;exitDx=0;exitDy=0;exitPerimeter=0;" parent="1" edge="1">
          <mxGeometry width="50" height="50" relative="1" as="geometry">
            <mxPoint x="262.5" y="1370" as="sourcePoint" />
            <mxPoint x="322.5" y="1370" as="targetPoint" />
          </mxGeometry>
        </mxCell>
        <mxCell id="gA_NJuyqVtPFc1KAvtDb-33" value="clear" style="endArrow=classic;html=1;rounded=0;" parent="1" edge="1">
          <mxGeometry width="50" height="50" relative="1" as="geometry">
            <mxPoint x="262.5" y="1381" as="sourcePoint" />
            <mxPoint x="322.5" y="1381" as="targetPoint" />
          </mxGeometry>
        </mxCell>
        <mxCell id="gA_NJuyqVtPFc1KAvtDb-35" value="ordered" style="endArrow=classic;html=1;rounded=0;" parent="1" edge="1">
          <mxGeometry width="50" height="50" relative="1" as="geometry">
            <mxPoint x="560" y="1284.58" as="sourcePoint" />
            <mxPoint x="660" y="1284.58" as="targetPoint" />
          </mxGeometry>
        </mxCell>
        <mxCell id="gA_NJuyqVtPFc1KAvtDb-36" value="hazard" style="endArrow=classic;html=1;rounded=0;" parent="1" edge="1">
          <mxGeometry width="50" height="50" relative="1" as="geometry">
            <mxPoint x="560" y="1319.58" as="sourcePoint" />
            <mxPoint x="660" y="1319.58" as="targetPoint" />
          </mxGeometry>
        </mxCell>
        <mxCell id="gA_NJuyqVtPFc1KAvtDb-37" value="spec" style="endArrow=classic;html=1;rounded=0;" parent="1" edge="1">
          <mxGeometry width="50" height="50" relative="1" as="geometry">
            <mxPoint x="560" y="1350" as="sourcePoint" />
            <mxPoint x="660" y="1350" as="targetPoint" />
          </mxGeometry>
        </mxCell>
        <mxCell id="gA_NJuyqVtPFc1KAvtDb-39" value="goes to page table walker" style="text;html=1;align=center;verticalAlign=middle;resizable=0;points=[];autosize=1;strokeColor=none;fillColor=none;" parent="1" vertex="1">
          <mxGeometry x="660" y="1270" width="160" height="30" as="geometry" />
        </mxCell>
        <mxCell id="aKXJv8a4xu-9UnsrvxZM-1" value="structural, data, control" style="text;html=1;align=center;verticalAlign=middle;resizable=0;points=[];autosize=1;strokeColor=none;fillColor=none;" parent="1" vertex="1">
          <mxGeometry x="660" y="1305" width="150" height="30" as="geometry" />
        </mxCell>
        <mxCell id="sKvHrq3CDE80FCjB9E0D-2" value="" style="endArrow=none;dashed=1;html=1;rounded=0;entryX=0.507;entryY=-0.018;entryDx=0;entryDy=0;entryPerimeter=0;" parent="1" target="8k8uYrVaryOAXli8iLL7-48" edge="1">
          <mxGeometry width="50" height="50" relative="1" as="geometry">
            <mxPoint x="1130" y="315" as="sourcePoint" />
            <mxPoint x="1020" y="334" as="targetPoint" />
          </mxGeometry>
        </mxCell>
        <mxCell id="Cw0wsggpifiwq6FvRd2A-1" value="trans_info" style="endArrow=classic;html=1;rounded=0;" parent="1" edge="1">
          <mxGeometry x="-0.3684" width="50" height="50" relative="1" as="geometry">
            <mxPoint x="90" y="499.5" as="sourcePoint" />
            <mxPoint x="280" y="499.5" as="targetPoint" />
            <mxPoint y="1" as="offset" />
          </mxGeometry>
        </mxCell>
        <mxCell id="yOim3DHMp8GKxZ3jqthw-2" value="&lt;span style=&quot;color: rgb(0, 0, 0); font-family: Helvetica; font-size: 11px; font-style: normal; font-variant-ligatures: normal; font-variant-caps: normal; font-weight: 400; letter-spacing: normal; orphans: 2; text-align: center; text-indent: 0px; text-transform: none; widows: 2; word-spacing: 0px; -webkit-text-stroke-width: 0px; white-space: nowrap; background-color: rgb(255, 255, 255); text-decoration-thickness: initial; text-decoration-style: initial; text-decoration-color: initial; display: inline !important; float: none;&quot;&gt;clear_iss&lt;/span&gt;" style="endArrow=classic;html=1;rounded=0;" parent="1" edge="1">
          <mxGeometry width="50" height="50" relative="1" as="geometry">
            <mxPoint x="560" y="1380" as="sourcePoint" />
            <mxPoint x="660" y="1380" as="targetPoint" />
          </mxGeometry>
        </mxCell>
        <mxCell id="yOim3DHMp8GKxZ3jqthw-4" value="br_pkt:&lt;div&gt;&lt;ul&gt;&lt;li&gt;&lt;span style=&quot;background-color: transparent; color: light-dark(rgb(0, 0, 0), rgb(255, 255, 255));&quot;&gt;branch&lt;/span&gt;&lt;/li&gt;&lt;li&gt;&lt;span style=&quot;background-color: transparent; color: light-dark(rgb(0, 0, 0), rgb(255, 255, 255));&quot;&gt;btaken&lt;/span&gt;&lt;/li&gt;&lt;li&gt;&lt;span style=&quot;background-color: transparent; color: light-dark(rgb(0, 0, 0), rgb(255, 255, 255));&quot;&gt;bspec&lt;/span&gt;&lt;/li&gt;&lt;li&gt;&lt;span style=&quot;background-color: transparent; color: light-dark(rgb(0, 0, 0), rgb(255, 255, 255));&quot;&gt;npc&lt;/span&gt;&lt;/li&gt;&lt;/ul&gt;&lt;/div&gt;" style="text;html=1;align=left;verticalAlign=middle;resizable=0;points=[];autosize=1;strokeColor=default;fillColor=none;" parent="1" vertex="1">
          <mxGeometry x="930" y="175" width="100" height="110" as="geometry" />
        </mxCell>
        <mxCell id="S3yOkAvdPEgWnoAJc2Mv-1" value="" style="endArrow=none;dashed=1;html=1;rounded=0;entryX=0.99;entryY=0.555;entryDx=0;entryDy=0;entryPerimeter=0;" parent="1" target="yOim3DHMp8GKxZ3jqthw-4" edge="1">
          <mxGeometry width="50" height="50" relative="1" as="geometry">
            <mxPoint x="1120" y="265" as="sourcePoint" />
            <mxPoint x="1046" y="372" as="targetPoint" />
          </mxGeometry>
        </mxCell>
        <mxCell id="S3yOkAvdPEgWnoAJc2Mv-4" value="noattaboy_v" style="text;html=1;align=center;verticalAlign=middle;resizable=0;points=[];autosize=1;strokeColor=none;fillColor=none;" parent="1" vertex="1">
          <mxGeometry x="670" y="1365" width="90" height="30" as="geometry" />
        </mxCell>
        <mxCell id="MRDGKlgLo15Ujas40PkA-8" style="edgeStyle=orthogonalEdgeStyle;rounded=0;orthogonalLoop=1;jettySize=auto;html=1;entryX=0.5;entryY=1;entryDx=0;entryDy=0;" edge="1" parent="1" source="MRDGKlgLo15Ujas40PkA-2" target="8k8uYrVaryOAXli8iLL7-2">
          <mxGeometry relative="1" as="geometry" />
        </mxCell>
        <mxCell id="MRDGKlgLo15Ujas40PkA-9" value="Fault" style="edgeLabel;html=1;align=center;verticalAlign=middle;resizable=0;points=[];" vertex="1" connectable="0" parent="MRDGKlgLo15Ujas40PkA-8">
          <mxGeometry x="-0.5889" y="2" relative="1" as="geometry">
            <mxPoint x="36" y="2" as="offset" />
          </mxGeometry>
        </mxCell>
        <mxCell id="MRDGKlgLo15Ujas40PkA-2" value="Page Table Walker" style="rounded=1;whiteSpace=wrap;html=1;" vertex="1" parent="1">
          <mxGeometry x="280" y="470" width="115" height="60" as="geometry" />
        </mxCell>
        <mxCell id="MRDGKlgLo15Ujas40PkA-3" value="commit_pkt" style="endArrow=classic;html=1;rounded=0;" edge="1" parent="1">
          <mxGeometry width="50" height="50" relative="1" as="geometry">
            <mxPoint x="90" y="190" as="sourcePoint" />
            <mxPoint x="270" y="190" as="targetPoint" />
          </mxGeometry>
        </mxCell>
        <mxCell id="MRDGKlgLo15Ujas40PkA-5" value="trans_info:&lt;div&gt;&lt;ul&gt;&lt;li&gt;priv_mode&lt;/li&gt;&lt;li&gt;base_ppn&lt;/li&gt;&lt;li&gt;translation_en&lt;/li&gt;&lt;li&gt;mstatus&lt;/li&gt;&lt;/ul&gt;&lt;/div&gt;" style="text;html=1;align=left;verticalAlign=middle;resizable=0;points=[];autosize=1;strokeColor=default;fillColor=none;" vertex="1" parent="1">
          <mxGeometry x="355" y="660" width="140" height="110" as="geometry" />
        </mxCell>
        <mxCell id="MRDGKlgLo15Ujas40PkA-6" value="" style="endArrow=none;dashed=1;html=1;rounded=0;entryX=-0.007;entryY=0.439;entryDx=0;entryDy=0;entryPerimeter=0;" edge="1" parent="1" target="MRDGKlgLo15Ujas40PkA-5">
          <mxGeometry width="50" height="50" relative="1" as="geometry">
            <mxPoint x="180" y="510" as="sourcePoint" />
            <mxPoint x="156" y="717" as="targetPoint" />
          </mxGeometry>
        </mxCell>
        <mxCell id="MRDGKlgLo15Ujas40PkA-7" value="" style="endArrow=classic;html=1;rounded=0;entryX=0;entryY=0.25;entryDx=0;entryDy=0;" edge="1" parent="1" target="MRDGKlgLo15Ujas40PkA-2">
          <mxGeometry width="50" height="50" relative="1" as="geometry">
            <mxPoint x="240" y="190" as="sourcePoint" />
            <mxPoint x="280" y="140" as="targetPoint" />
            <Array as="points">
              <mxPoint x="240" y="485" />
            </Array>
          </mxGeometry>
        </mxCell>
        <mxCell id="MRDGKlgLo15Ujas40PkA-10" value="" style="endArrow=none;dashed=1;html=1;rounded=0;entryX=0.66;entryY=0.776;entryDx=0;entryDy=0;entryPerimeter=0;" edge="1" parent="1" source="MRDGKlgLo15Ujas40PkA-11" target="krLTCR8n1Ns8TSGt49DA-25">
          <mxGeometry width="50" height="50" relative="1" as="geometry">
            <mxPoint x="750" y="420" as="sourcePoint" />
            <mxPoint x="580" y="520" as="targetPoint" />
          </mxGeometry>
        </mxCell>
        <mxCell id="MRDGKlgLo15Ujas40PkA-11" value="PTW forces an exception on dispatch_pkt" style="text;html=1;align=center;verticalAlign=middle;resizable=0;points=[];autosize=1;strokeColor=none;fillColor=none;" vertex="1" parent="1">
          <mxGeometry x="425" y="560" width="240" height="30" as="geometry" />
        </mxCell>
        <mxCell id="MRDGKlgLo15Ujas40PkA-12" value="" style="endArrow=none;dashed=1;html=1;rounded=0;entryX=0.574;entryY=0.586;entryDx=0;entryDy=0;entryPerimeter=0;" edge="1" parent="1" source="MRDGKlgLo15Ujas40PkA-13" target="krLTCR8n1Ns8TSGt49DA-25">
          <mxGeometry width="50" height="50" relative="1" as="geometry">
            <mxPoint x="706" y="310" as="sourcePoint" />
            <mxPoint x="560" y="371" as="targetPoint" />
          </mxGeometry>
        </mxCell>
        <mxCell id="MRDGKlgLo15Ujas40PkA-13" value="&quot;Poison&quot; on branch misprediction" style="text;html=1;align=center;verticalAlign=middle;resizable=0;points=[];autosize=1;strokeColor=none;fillColor=none;" vertex="1" parent="1">
          <mxGeometry x="375" y="425" width="200" height="30" as="geometry" />
        </mxCell>
        <mxCell id="yZrzM_71IWtmlIYWRcAM-1" value="late_wb" style="endArrow=classic;html=1;rounded=0;" edge="1" parent="1">
          <mxGeometry x="-0.3684" width="50" height="50" relative="1" as="geometry">
            <mxPoint x="90" y="520" as="sourcePoint" />
            <mxPoint x="280" y="520" as="targetPoint" />
            <mxPoint as="offset" />
          </mxGeometry>
        </mxCell>
        <mxCell id="yZrzM_71IWtmlIYWRcAM-2" value="late_wb:&lt;div&gt;&lt;ul&gt;&lt;li&gt;dcache read addr&lt;/li&gt;&lt;li&gt;dcache read data&lt;/li&gt;&lt;/ul&gt;&lt;/div&gt;" style="text;html=1;align=left;verticalAlign=middle;resizable=0;points=[];autosize=1;strokeColor=default;fillColor=none;" vertex="1" parent="1">
          <mxGeometry x="70" y="660" width="160" height="80" as="geometry" />
        </mxCell>
        <mxCell id="yZrzM_71IWtmlIYWRcAM-3" value="" style="endArrow=none;dashed=1;html=1;rounded=0;" edge="1" parent="1">
          <mxGeometry width="50" height="50" relative="1" as="geometry">
            <mxPoint x="150" y="540" as="sourcePoint" />
            <mxPoint x="149" y="650" as="targetPoint" />
          </mxGeometry>
        </mxCell>
      </root>
    </mxGraphModel>
  </diagram>
  <diagram id="kePp37-P6D333y8cFpZS" name="Back End - Calculator">
    <mxGraphModel dx="1215" dy="828" grid="1" gridSize="10" guides="1" tooltips="1" connect="1" arrows="1" fold="1" page="1" pageScale="1" pageWidth="850" pageHeight="1100" math="0" shadow="0">
      <root>
        <mxCell id="0" />
        <mxCell id="1" parent="0" />
        <mxCell id="GiC6AAE_ShxXzTyVYAFK-16" value="" style="edgeStyle=orthogonalEdgeStyle;rounded=0;orthogonalLoop=1;jettySize=auto;html=1;" parent="1" source="GiC6AAE_ShxXzTyVYAFK-1" target="GiC6AAE_ShxXzTyVYAFK-6" edge="1">
          <mxGeometry relative="1" as="geometry" />
        </mxCell>
        <mxCell id="GiC6AAE_ShxXzTyVYAFK-1" value="0" style="rounded=1;whiteSpace=wrap;html=1;" parent="1" vertex="1">
          <mxGeometry x="170" y="40" width="30" height="60" as="geometry" />
        </mxCell>
        <mxCell id="GiC6AAE_ShxXzTyVYAFK-21" value="" style="edgeStyle=orthogonalEdgeStyle;rounded=0;orthogonalLoop=1;jettySize=auto;html=1;" parent="1" source="GiC6AAE_ShxXzTyVYAFK-3" target="GiC6AAE_ShxXzTyVYAFK-7" edge="1">
          <mxGeometry relative="1" as="geometry" />
        </mxCell>
        <mxCell id="GiC6AAE_ShxXzTyVYAFK-3" value="0" style="rounded=1;whiteSpace=wrap;html=1;" parent="1" vertex="1">
          <mxGeometry x="170" y="110" width="30" height="60" as="geometry" />
        </mxCell>
        <mxCell id="GiC6AAE_ShxXzTyVYAFK-4" value="Completion Pipeline" style="text;html=1;align=center;verticalAlign=middle;resizable=0;points=[];autosize=1;strokeColor=none;fillColor=none;fontStyle=1" parent="1" vertex="1">
          <mxGeometry x="670" y="125" width="130" height="30" as="geometry" />
        </mxCell>
        <mxCell id="GiC6AAE_ShxXzTyVYAFK-5" value="Exception Pipeline" style="text;html=1;align=center;verticalAlign=middle;resizable=0;points=[];autosize=1;strokeColor=none;fillColor=none;fontStyle=1" parent="1" vertex="1">
          <mxGeometry x="675" y="55" width="120" height="30" as="geometry" />
        </mxCell>
        <mxCell id="GiC6AAE_ShxXzTyVYAFK-17" value="" style="edgeStyle=orthogonalEdgeStyle;rounded=0;orthogonalLoop=1;jettySize=auto;html=1;" parent="1" source="GiC6AAE_ShxXzTyVYAFK-6" target="GiC6AAE_ShxXzTyVYAFK-8" edge="1">
          <mxGeometry relative="1" as="geometry" />
        </mxCell>
        <mxCell id="GiC6AAE_ShxXzTyVYAFK-6" value="1" style="rounded=1;whiteSpace=wrap;html=1;" parent="1" vertex="1">
          <mxGeometry x="260" y="40" width="30" height="60" as="geometry" />
        </mxCell>
        <mxCell id="GiC6AAE_ShxXzTyVYAFK-22" value="" style="edgeStyle=orthogonalEdgeStyle;rounded=0;orthogonalLoop=1;jettySize=auto;html=1;" parent="1" source="GiC6AAE_ShxXzTyVYAFK-7" target="GiC6AAE_ShxXzTyVYAFK-9" edge="1">
          <mxGeometry relative="1" as="geometry" />
        </mxCell>
        <mxCell id="GiC6AAE_ShxXzTyVYAFK-7" value="1" style="rounded=1;whiteSpace=wrap;html=1;" parent="1" vertex="1">
          <mxGeometry x="260" y="110" width="30" height="60" as="geometry" />
        </mxCell>
        <mxCell id="GiC6AAE_ShxXzTyVYAFK-18" value="" style="edgeStyle=orthogonalEdgeStyle;rounded=0;orthogonalLoop=1;jettySize=auto;html=1;" parent="1" source="GiC6AAE_ShxXzTyVYAFK-8" target="GiC6AAE_ShxXzTyVYAFK-10" edge="1">
          <mxGeometry relative="1" as="geometry" />
        </mxCell>
        <mxCell id="GiC6AAE_ShxXzTyVYAFK-8" value="2" style="rounded=1;whiteSpace=wrap;html=1;" parent="1" vertex="1">
          <mxGeometry x="350" y="40" width="30" height="60" as="geometry" />
        </mxCell>
        <mxCell id="GiC6AAE_ShxXzTyVYAFK-23" value="" style="edgeStyle=orthogonalEdgeStyle;rounded=0;orthogonalLoop=1;jettySize=auto;html=1;" parent="1" source="GiC6AAE_ShxXzTyVYAFK-9" target="GiC6AAE_ShxXzTyVYAFK-11" edge="1">
          <mxGeometry relative="1" as="geometry" />
        </mxCell>
        <mxCell id="GiC6AAE_ShxXzTyVYAFK-9" value="2" style="rounded=1;whiteSpace=wrap;html=1;" parent="1" vertex="1">
          <mxGeometry x="350" y="110" width="30" height="60" as="geometry" />
        </mxCell>
        <mxCell id="GiC6AAE_ShxXzTyVYAFK-19" value="" style="edgeStyle=orthogonalEdgeStyle;rounded=0;orthogonalLoop=1;jettySize=auto;html=1;" parent="1" source="GiC6AAE_ShxXzTyVYAFK-10" target="GiC6AAE_ShxXzTyVYAFK-12" edge="1">
          <mxGeometry relative="1" as="geometry" />
        </mxCell>
        <mxCell id="GiC6AAE_ShxXzTyVYAFK-10" value="3" style="rounded=1;whiteSpace=wrap;html=1;" parent="1" vertex="1">
          <mxGeometry x="440" y="40" width="30" height="60" as="geometry" />
        </mxCell>
        <mxCell id="GiC6AAE_ShxXzTyVYAFK-24" value="" style="edgeStyle=orthogonalEdgeStyle;rounded=0;orthogonalLoop=1;jettySize=auto;html=1;" parent="1" source="GiC6AAE_ShxXzTyVYAFK-11" target="GiC6AAE_ShxXzTyVYAFK-13" edge="1">
          <mxGeometry relative="1" as="geometry" />
        </mxCell>
        <mxCell id="GiC6AAE_ShxXzTyVYAFK-11" value="3" style="rounded=1;whiteSpace=wrap;html=1;" parent="1" vertex="1">
          <mxGeometry x="440" y="110" width="30" height="60" as="geometry" />
        </mxCell>
        <mxCell id="GiC6AAE_ShxXzTyVYAFK-20" value="" style="edgeStyle=orthogonalEdgeStyle;rounded=0;orthogonalLoop=1;jettySize=auto;html=1;" parent="1" source="GiC6AAE_ShxXzTyVYAFK-12" target="GiC6AAE_ShxXzTyVYAFK-14" edge="1">
          <mxGeometry relative="1" as="geometry" />
        </mxCell>
        <mxCell id="GiC6AAE_ShxXzTyVYAFK-12" value="4" style="rounded=1;whiteSpace=wrap;html=1;" parent="1" vertex="1">
          <mxGeometry x="530" y="40" width="30" height="60" as="geometry" />
        </mxCell>
        <mxCell id="GiC6AAE_ShxXzTyVYAFK-25" value="" style="edgeStyle=orthogonalEdgeStyle;rounded=0;orthogonalLoop=1;jettySize=auto;html=1;" parent="1" source="GiC6AAE_ShxXzTyVYAFK-13" target="GiC6AAE_ShxXzTyVYAFK-15" edge="1">
          <mxGeometry relative="1" as="geometry" />
        </mxCell>
        <mxCell id="GiC6AAE_ShxXzTyVYAFK-13" value="4" style="rounded=1;whiteSpace=wrap;html=1;" parent="1" vertex="1">
          <mxGeometry x="530" y="110" width="30" height="60" as="geometry" />
        </mxCell>
        <mxCell id="GiC6AAE_ShxXzTyVYAFK-14" value="5" style="rounded=1;whiteSpace=wrap;html=1;" parent="1" vertex="1">
          <mxGeometry x="620" y="40" width="30" height="60" as="geometry" />
        </mxCell>
        <mxCell id="GiC6AAE_ShxXzTyVYAFK-15" value="5" style="rounded=1;whiteSpace=wrap;html=1;" parent="1" vertex="1">
          <mxGeometry x="620" y="110" width="30" height="60" as="geometry" />
        </mxCell>
        <mxCell id="GiC6AAE_ShxXzTyVYAFK-38" style="edgeStyle=orthogonalEdgeStyle;rounded=0;orthogonalLoop=1;jettySize=auto;html=1;entryX=0;entryY=0.75;entryDx=0;entryDy=0;" parent="1" source="GiC6AAE_ShxXzTyVYAFK-26" target="GiC6AAE_ShxXzTyVYAFK-7" edge="1">
          <mxGeometry relative="1" as="geometry" />
        </mxCell>
        <mxCell id="GiC6AAE_ShxXzTyVYAFK-26" value="pipe_sys" style="rounded=1;whiteSpace=wrap;html=1;" parent="1" vertex="1">
          <mxGeometry x="150" y="290" width="70" height="60" as="geometry" />
        </mxCell>
        <mxCell id="GiC6AAE_ShxXzTyVYAFK-36" style="edgeStyle=orthogonalEdgeStyle;rounded=0;orthogonalLoop=1;jettySize=auto;html=1;entryX=0;entryY=0.75;entryDx=0;entryDy=0;" parent="1" source="GiC6AAE_ShxXzTyVYAFK-27" target="GiC6AAE_ShxXzTyVYAFK-7" edge="1">
          <mxGeometry relative="1" as="geometry" />
        </mxCell>
        <mxCell id="GiC6AAE_ShxXzTyVYAFK-27" value="pipe_int" style="rounded=1;whiteSpace=wrap;html=1;" parent="1" vertex="1">
          <mxGeometry x="150" y="210" width="70" height="60" as="geometry" />
        </mxCell>
        <mxCell id="GiC6AAE_ShxXzTyVYAFK-29" value="pipe_aux" style="rounded=1;whiteSpace=wrap;html=1;" parent="1" vertex="1">
          <mxGeometry x="150" y="470" width="150" height="60" as="geometry" />
        </mxCell>
        <mxCell id="GiC6AAE_ShxXzTyVYAFK-49" style="edgeStyle=orthogonalEdgeStyle;rounded=0;orthogonalLoop=1;jettySize=auto;html=1;entryX=0;entryY=0.75;entryDx=0;entryDy=0;" parent="1" source="GiC6AAE_ShxXzTyVYAFK-30" target="GiC6AAE_ShxXzTyVYAFK-11" edge="1">
          <mxGeometry relative="1" as="geometry" />
        </mxCell>
        <mxCell id="GiC6AAE_ShxXzTyVYAFK-30" value="pipe_mem" style="rounded=1;whiteSpace=wrap;html=1;" parent="1" vertex="1">
          <mxGeometry x="150" y="380" width="250" height="60" as="geometry" />
        </mxCell>
        <mxCell id="GiC6AAE_ShxXzTyVYAFK-53" style="edgeStyle=orthogonalEdgeStyle;rounded=0;orthogonalLoop=1;jettySize=auto;html=1;entryX=0;entryY=0.75;entryDx=0;entryDy=0;" parent="1" source="GiC6AAE_ShxXzTyVYAFK-31" target="GiC6AAE_ShxXzTyVYAFK-13" edge="1">
          <mxGeometry relative="1" as="geometry">
            <Array as="points">
              <mxPoint x="510" y="680" />
              <mxPoint x="510" y="155" />
            </Array>
          </mxGeometry>
        </mxCell>
        <mxCell id="GiC6AAE_ShxXzTyVYAFK-31" value="pipe_fma" style="rounded=1;whiteSpace=wrap;html=1;" parent="1" vertex="1">
          <mxGeometry x="150" y="650" width="340" height="60" as="geometry" />
        </mxCell>
        <mxCell id="GiC6AAE_ShxXzTyVYAFK-32" value="pipe_long" style="rounded=1;whiteSpace=wrap;html=1;" parent="1" vertex="1">
          <mxGeometry x="150" y="750" width="340" height="60" as="geometry" />
        </mxCell>
        <mxCell id="GiC6AAE_ShxXzTyVYAFK-33" value="dispatch_pkt" style="endArrow=classic;html=1;rounded=0;" parent="1" edge="1">
          <mxGeometry width="50" height="50" relative="1" as="geometry">
            <mxPoint x="20" y="220" as="sourcePoint" />
            <mxPoint x="130" y="220" as="targetPoint" />
          </mxGeometry>
        </mxCell>
        <mxCell id="GiC6AAE_ShxXzTyVYAFK-34" value="" style="endArrow=classic;html=1;rounded=0;entryX=0;entryY=0.5;entryDx=0;entryDy=0;" parent="1" target="GiC6AAE_ShxXzTyVYAFK-3" edge="1">
          <mxGeometry width="50" height="50" relative="1" as="geometry">
            <mxPoint x="130" y="220" as="sourcePoint" />
            <mxPoint x="180" y="170" as="targetPoint" />
            <Array as="points">
              <mxPoint x="130" y="140" />
            </Array>
          </mxGeometry>
        </mxCell>
        <mxCell id="GiC6AAE_ShxXzTyVYAFK-35" value="" style="endArrow=classic;html=1;rounded=0;entryX=0;entryY=0.5;entryDx=0;entryDy=0;" parent="1" target="GiC6AAE_ShxXzTyVYAFK-27" edge="1">
          <mxGeometry width="50" height="50" relative="1" as="geometry">
            <mxPoint x="130" y="220" as="sourcePoint" />
            <mxPoint x="180" y="170" as="targetPoint" />
            <Array as="points">
              <mxPoint x="130" y="240" />
            </Array>
          </mxGeometry>
        </mxCell>
        <mxCell id="GiC6AAE_ShxXzTyVYAFK-37" value="" style="endArrow=classic;html=1;rounded=0;entryX=0;entryY=0.5;entryDx=0;entryDy=0;" parent="1" target="GiC6AAE_ShxXzTyVYAFK-26" edge="1">
          <mxGeometry width="50" height="50" relative="1" as="geometry">
            <mxPoint x="130" y="220" as="sourcePoint" />
            <mxPoint x="160" y="250" as="targetPoint" />
            <Array as="points">
              <mxPoint x="130" y="320" />
            </Array>
          </mxGeometry>
        </mxCell>
        <mxCell id="GiC6AAE_ShxXzTyVYAFK-39" value="" style="endArrow=classic;html=1;rounded=0;entryX=0;entryY=0.5;entryDx=0;entryDy=0;" parent="1" target="GiC6AAE_ShxXzTyVYAFK-30" edge="1">
          <mxGeometry width="50" height="50" relative="1" as="geometry">
            <mxPoint x="130" y="220" as="sourcePoint" />
            <mxPoint x="160" y="330" as="targetPoint" />
            <Array as="points">
              <mxPoint x="130" y="410" />
            </Array>
          </mxGeometry>
        </mxCell>
        <mxCell id="GiC6AAE_ShxXzTyVYAFK-40" style="edgeStyle=orthogonalEdgeStyle;rounded=0;orthogonalLoop=1;jettySize=auto;html=1;entryX=0;entryY=0.75;entryDx=0;entryDy=0;" parent="1" target="GiC6AAE_ShxXzTyVYAFK-9" edge="1">
          <mxGeometry relative="1" as="geometry">
            <mxPoint x="330" y="380" as="sourcePoint" />
            <mxPoint x="270" y="165" as="targetPoint" />
            <Array as="points">
              <mxPoint x="330" y="380" />
              <mxPoint x="330" y="155" />
            </Array>
          </mxGeometry>
        </mxCell>
        <mxCell id="GiC6AAE_ShxXzTyVYAFK-41" value="early data" style="text;html=1;align=center;verticalAlign=middle;resizable=0;points=[];autosize=1;strokeColor=none;fillColor=none;" parent="1" vertex="1">
          <mxGeometry x="320" y="350" width="80" height="30" as="geometry" />
        </mxCell>
        <mxCell id="GiC6AAE_ShxXzTyVYAFK-42" value="" style="endArrow=classic;html=1;rounded=0;entryX=0;entryY=0.5;entryDx=0;entryDy=0;" parent="1" target="GiC6AAE_ShxXzTyVYAFK-29" edge="1">
          <mxGeometry width="50" height="50" relative="1" as="geometry">
            <mxPoint x="130" y="220" as="sourcePoint" />
            <mxPoint x="160" y="420" as="targetPoint" />
            <Array as="points">
              <mxPoint x="130" y="500" />
            </Array>
          </mxGeometry>
        </mxCell>
        <mxCell id="GiC6AAE_ShxXzTyVYAFK-43" style="edgeStyle=orthogonalEdgeStyle;rounded=0;orthogonalLoop=1;jettySize=auto;html=1;entryX=0;entryY=0.75;entryDx=0;entryDy=0;" parent="1" source="GiC6AAE_ShxXzTyVYAFK-29" target="GiC6AAE_ShxXzTyVYAFK-9" edge="1">
          <mxGeometry relative="1" as="geometry">
            <Array as="points">
              <mxPoint x="310" y="155" />
            </Array>
          </mxGeometry>
        </mxCell>
        <mxCell id="GiC6AAE_ShxXzTyVYAFK-48" style="edgeStyle=orthogonalEdgeStyle;rounded=0;orthogonalLoop=1;jettySize=auto;html=1;entryX=0;entryY=0.75;entryDx=0;entryDy=0;" parent="1" source="GiC6AAE_ShxXzTyVYAFK-44" target="GiC6AAE_ShxXzTyVYAFK-9" edge="1">
          <mxGeometry relative="1" as="geometry">
            <Array as="points">
              <mxPoint x="310" y="590" />
              <mxPoint x="310" y="155" />
            </Array>
          </mxGeometry>
        </mxCell>
        <mxCell id="GiC6AAE_ShxXzTyVYAFK-44" value="pipe_int" style="rounded=1;whiteSpace=wrap;html=1;" parent="1" vertex="1">
          <mxGeometry x="210" y="560" width="70" height="60" as="geometry" />
        </mxCell>
        <mxCell id="GiC6AAE_ShxXzTyVYAFK-47" value="" style="edgeStyle=orthogonalEdgeStyle;rounded=0;orthogonalLoop=1;jettySize=auto;html=1;" parent="1" source="GiC6AAE_ShxXzTyVYAFK-45" target="GiC6AAE_ShxXzTyVYAFK-44" edge="1">
          <mxGeometry relative="1" as="geometry" />
        </mxCell>
        <mxCell id="GiC6AAE_ShxXzTyVYAFK-45" value="ispec" style="rounded=1;whiteSpace=wrap;html=1;" parent="1" vertex="1">
          <mxGeometry x="150" y="560" width="30" height="60" as="geometry" />
        </mxCell>
        <mxCell id="GiC6AAE_ShxXzTyVYAFK-46" value="" style="endArrow=classic;html=1;rounded=0;entryX=0;entryY=0.5;entryDx=0;entryDy=0;" parent="1" target="GiC6AAE_ShxXzTyVYAFK-45" edge="1">
          <mxGeometry width="50" height="50" relative="1" as="geometry">
            <mxPoint x="130" y="220" as="sourcePoint" />
            <mxPoint x="160" y="510" as="targetPoint" />
            <Array as="points">
              <mxPoint x="130" y="590" />
            </Array>
          </mxGeometry>
        </mxCell>
        <mxCell id="GiC6AAE_ShxXzTyVYAFK-50" value="" style="endArrow=classic;html=1;rounded=0;entryX=0;entryY=0.5;entryDx=0;entryDy=0;" parent="1" target="GiC6AAE_ShxXzTyVYAFK-31" edge="1">
          <mxGeometry width="50" height="50" relative="1" as="geometry">
            <mxPoint x="130" y="220" as="sourcePoint" />
            <mxPoint x="160" y="600" as="targetPoint" />
            <Array as="points">
              <mxPoint x="130" y="680" />
            </Array>
          </mxGeometry>
        </mxCell>
        <mxCell id="GiC6AAE_ShxXzTyVYAFK-51" value="" style="endArrow=classic;html=1;rounded=0;entryX=0;entryY=0.5;entryDx=0;entryDy=0;" parent="1" target="GiC6AAE_ShxXzTyVYAFK-32" edge="1">
          <mxGeometry width="50" height="50" relative="1" as="geometry">
            <mxPoint x="130" y="220" as="sourcePoint" />
            <mxPoint x="160" y="690" as="targetPoint" />
            <Array as="points">
              <mxPoint x="130" y="780" />
            </Array>
          </mxGeometry>
        </mxCell>
        <mxCell id="GiC6AAE_ShxXzTyVYAFK-54" value="Exception Signals not Shown" style="text;html=1;align=center;verticalAlign=middle;resizable=0;points=[];autosize=1;strokeColor=none;fillColor=none;" parent="1" vertex="1">
          <mxGeometry x="650" y="70" width="180" height="30" as="geometry" />
        </mxCell>
        <mxCell id="GiC6AAE_ShxXzTyVYAFK-55" value="" style="endArrow=classic;html=1;rounded=0;" parent="1" edge="1">
          <mxGeometry width="50" height="50" relative="1" as="geometry">
            <mxPoint x="220" y="330" as="sourcePoint" />
            <mxPoint x="730" y="330" as="targetPoint" />
          </mxGeometry>
        </mxCell>
        <mxCell id="GiC6AAE_ShxXzTyVYAFK-56" value="commit_pkt" style="edgeLabel;html=1;align=center;verticalAlign=middle;resizable=0;points=[];" parent="GiC6AAE_ShxXzTyVYAFK-55" vertex="1" connectable="0">
          <mxGeometry x="0.827" y="3" relative="1" as="geometry">
            <mxPoint y="2" as="offset" />
          </mxGeometry>
        </mxCell>
        <mxCell id="9AC1Qy4oOfHY8JK331Vd-1" value="Stage 0" style="text;html=1;align=center;verticalAlign=middle;resizable=0;points=[];autosize=1;strokeColor=none;fillColor=none;" vertex="1" parent="1">
          <mxGeometry x="155" y="10" width="60" height="30" as="geometry" />
        </mxCell>
        <mxCell id="9AC1Qy4oOfHY8JK331Vd-2" value="Stage 1" style="text;html=1;align=center;verticalAlign=middle;resizable=0;points=[];autosize=1;strokeColor=none;fillColor=none;" vertex="1" parent="1">
          <mxGeometry x="240" y="10" width="60" height="30" as="geometry" />
        </mxCell>
        <mxCell id="9AC1Qy4oOfHY8JK331Vd-3" value="..." style="text;html=1;align=center;verticalAlign=middle;resizable=0;points=[];autosize=1;strokeColor=none;fillColor=none;" vertex="1" parent="1">
          <mxGeometry x="350" y="10" width="30" height="30" as="geometry" />
        </mxCell>
        <mxCell id="kRVPZlES6UJR87z0i3mX-1" value="FLOAD_OP" style="text;html=1;align=center;verticalAlign=middle;resizable=0;points=[];autosize=1;strokeColor=none;fillColor=none;" vertex="1" parent="1">
          <mxGeometry x="400" y="410" width="90" height="30" as="geometry" />
        </mxCell>
      </root>
    </mxGraphModel>
  </diagram>
  <diagram id="TyhY8Az9OPiIgJo3Y529" name="Pipes - Sys">
    <mxGraphModel dx="788" dy="880" grid="1" gridSize="10" guides="1" tooltips="1" connect="1" arrows="1" fold="1" page="1" pageScale="1" pageWidth="850" pageHeight="1100" math="0" shadow="0">
      <root>
        <mxCell id="0" />
        <mxCell id="1" parent="0" />
        <mxCell id="fK6d8Vts-quhMgyPt1Vo-1" value="" style="rounded=1;whiteSpace=wrap;html=1;" parent="1" vertex="1">
          <mxGeometry x="320" y="120" width="220" height="330" as="geometry" />
        </mxCell>
        <mxCell id="fK6d8Vts-quhMgyPt1Vo-2" value="" style="endArrow=classic;html=1;rounded=0;entryX=0.003;entryY=0.11;entryDx=0;entryDy=0;entryPerimeter=0;" parent="1" target="fK6d8Vts-quhMgyPt1Vo-14" edge="1">
          <mxGeometry width="50" height="50" relative="1" as="geometry">
            <mxPoint x="200" y="180" as="sourcePoint" />
            <mxPoint x="330" y="130" as="targetPoint" />
          </mxGeometry>
        </mxCell>
        <mxCell id="fK6d8Vts-quhMgyPt1Vo-3" value="reservation" style="edgeLabel;html=1;align=center;verticalAlign=middle;resizable=0;points=[];" parent="fK6d8Vts-quhMgyPt1Vo-2" vertex="1" connectable="0">
          <mxGeometry x="-0.5176" y="3" relative="1" as="geometry">
            <mxPoint x="19" as="offset" />
          </mxGeometry>
        </mxCell>
        <mxCell id="fK6d8Vts-quhMgyPt1Vo-4" value="(aka, dispatch_pkt)" style="text;html=1;align=center;verticalAlign=middle;resizable=0;points=[];autosize=1;strokeColor=none;fillColor=none;" parent="1" vertex="1">
          <mxGeometry x="190" y="188" width="120" height="30" as="geometry" />
        </mxCell>
        <mxCell id="fK6d8Vts-quhMgyPt1Vo-5" value="r" style="endArrow=classic;html=1;rounded=0;entryX=0.102;entryY=0.152;entryDx=0;entryDy=0;entryPerimeter=0;" parent="1" edge="1">
          <mxGeometry width="50" height="50" relative="1" as="geometry">
            <mxPoint x="200" y="240" as="sourcePoint" />
            <mxPoint x="370" y="240" as="targetPoint" />
          </mxGeometry>
        </mxCell>
        <mxCell id="fK6d8Vts-quhMgyPt1Vo-6" value="retire_queue" style="edgeLabel;html=1;align=center;verticalAlign=middle;resizable=0;points=[];" parent="fK6d8Vts-quhMgyPt1Vo-5" vertex="1" connectable="0">
          <mxGeometry x="-0.5176" y="3" relative="1" as="geometry">
            <mxPoint x="19" as="offset" />
          </mxGeometry>
        </mxCell>
        <mxCell id="fK6d8Vts-quhMgyPt1Vo-7" value="(aka, stage 2 comp/exc pipe)" style="text;html=1;align=center;verticalAlign=middle;resizable=0;points=[];autosize=1;strokeColor=none;fillColor=none;" parent="1" vertex="1">
          <mxGeometry x="150" y="240" width="180" height="30" as="geometry" />
        </mxCell>
        <mxCell id="fK6d8Vts-quhMgyPt1Vo-8" value="" style="endArrow=classic;html=1;rounded=0;entryX=0.102;entryY=0.152;entryDx=0;entryDy=0;entryPerimeter=0;" parent="1" edge="1">
          <mxGeometry width="50" height="50" relative="1" as="geometry">
            <mxPoint x="200" y="305" as="sourcePoint" />
            <mxPoint x="370" y="305" as="targetPoint" />
          </mxGeometry>
        </mxCell>
        <mxCell id="fK6d8Vts-quhMgyPt1Vo-9" value="iwb_pkt" style="edgeLabel;html=1;align=center;verticalAlign=middle;resizable=0;points=[];" parent="fK6d8Vts-quhMgyPt1Vo-8" vertex="1" connectable="0">
          <mxGeometry x="-0.5176" y="3" relative="1" as="geometry">
            <mxPoint x="19" as="offset" />
          </mxGeometry>
        </mxCell>
        <mxCell id="fK6d8Vts-quhMgyPt1Vo-10" value="(int writeback, aka stage 3)" style="text;html=1;align=center;verticalAlign=middle;resizable=0;points=[];autosize=1;strokeColor=none;fillColor=none;" parent="1" vertex="1">
          <mxGeometry x="150" y="310" width="170" height="30" as="geometry" />
        </mxCell>
        <mxCell id="fK6d8Vts-quhMgyPt1Vo-11" value="" style="endArrow=classic;html=1;rounded=0;entryX=0.102;entryY=0.152;entryDx=0;entryDy=0;entryPerimeter=0;" parent="1" edge="1">
          <mxGeometry width="50" height="50" relative="1" as="geometry">
            <mxPoint x="200" y="360" as="sourcePoint" />
            <mxPoint x="370" y="360" as="targetPoint" />
          </mxGeometry>
        </mxCell>
        <mxCell id="fK6d8Vts-quhMgyPt1Vo-12" value="fwb_pkt" style="edgeLabel;html=1;align=center;verticalAlign=middle;resizable=0;points=[];" parent="fK6d8Vts-quhMgyPt1Vo-11" vertex="1" connectable="0">
          <mxGeometry x="-0.5176" y="3" relative="1" as="geometry">
            <mxPoint x="19" as="offset" />
          </mxGeometry>
        </mxCell>
        <mxCell id="fK6d8Vts-quhMgyPt1Vo-13" value="(float writeback, aka stage 4)" style="text;html=1;align=center;verticalAlign=middle;resizable=0;points=[];autosize=1;strokeColor=none;fillColor=none;" parent="1" vertex="1">
          <mxGeometry x="150" y="360" width="180" height="30" as="geometry" />
        </mxCell>
        <mxCell id="fK6d8Vts-quhMgyPt1Vo-14" value="csr" style="rounded=1;whiteSpace=wrap;html=1;" parent="1" vertex="1">
          <mxGeometry x="370" y="150" width="120" height="260" as="geometry" />
        </mxCell>
        <mxCell id="fK6d8Vts-quhMgyPt1Vo-15" value="" style="endArrow=classic;html=1;rounded=0;entryX=0.102;entryY=0.152;entryDx=0;entryDy=0;entryPerimeter=0;" parent="1" edge="1">
          <mxGeometry width="50" height="50" relative="1" as="geometry">
            <mxPoint x="490" y="209.5" as="sourcePoint" />
            <mxPoint x="660" y="209.5" as="targetPoint" />
          </mxGeometry>
        </mxCell>
        <mxCell id="fK6d8Vts-quhMgyPt1Vo-16" value="decode_info" style="edgeLabel;html=1;align=center;verticalAlign=middle;resizable=0;points=[];" parent="fK6d8Vts-quhMgyPt1Vo-15" vertex="1" connectable="0">
          <mxGeometry x="-0.5176" y="3" relative="1" as="geometry">
            <mxPoint x="19" as="offset" />
          </mxGeometry>
        </mxCell>
        <mxCell id="fK6d8Vts-quhMgyPt1Vo-17" value="m, s, u mode&lt;div&gt;mstatus&lt;/div&gt;&lt;div&gt;various other CSR&lt;/div&gt;" style="text;html=1;align=left;verticalAlign=middle;resizable=0;points=[];autosize=1;strokeColor=default;fillColor=none;" parent="1" vertex="1">
          <mxGeometry x="590" y="128" width="120" height="60" as="geometry" />
        </mxCell>
        <mxCell id="fK6d8Vts-quhMgyPt1Vo-18" value="" style="endArrow=classic;html=1;rounded=0;entryX=0.102;entryY=0.152;entryDx=0;entryDy=0;entryPerimeter=0;" parent="1" edge="1">
          <mxGeometry width="50" height="50" relative="1" as="geometry">
            <mxPoint x="490" y="269.5" as="sourcePoint" />
            <mxPoint x="660" y="269.5" as="targetPoint" />
          </mxGeometry>
        </mxCell>
        <mxCell id="fK6d8Vts-quhMgyPt1Vo-19" value="trans_info" style="edgeLabel;html=1;align=center;verticalAlign=middle;resizable=0;points=[];" parent="fK6d8Vts-quhMgyPt1Vo-18" vertex="1" connectable="0">
          <mxGeometry x="-0.5176" y="3" relative="1" as="geometry">
            <mxPoint x="19" as="offset" />
          </mxGeometry>
        </mxCell>
        <mxCell id="fK6d8Vts-quhMgyPt1Vo-20" value="" style="endArrow=classic;html=1;rounded=0;entryX=0.102;entryY=0.152;entryDx=0;entryDy=0;entryPerimeter=0;" parent="1" edge="1">
          <mxGeometry width="50" height="50" relative="1" as="geometry">
            <mxPoint x="490" y="340" as="sourcePoint" />
            <mxPoint x="660" y="340" as="targetPoint" />
          </mxGeometry>
        </mxCell>
        <mxCell id="fK6d8Vts-quhMgyPt1Vo-21" value="commit_pkt" style="edgeLabel;html=1;align=center;verticalAlign=middle;resizable=0;points=[];" parent="fK6d8Vts-quhMgyPt1Vo-20" vertex="1" connectable="0">
          <mxGeometry x="-0.5176" y="3" relative="1" as="geometry">
            <mxPoint x="19" as="offset" />
          </mxGeometry>
        </mxCell>
        <mxCell id="fK6d8Vts-quhMgyPt1Vo-22" value="instret&lt;div&gt;pc&lt;/div&gt;&lt;div&gt;npc&lt;/div&gt;&lt;div&gt;vaddr&lt;/div&gt;&lt;div&gt;instr&lt;/div&gt;&lt;div&gt;priv_mode&lt;/div&gt;&lt;div&gt;exceptions&lt;/div&gt;&lt;div&gt;&lt;span style=&quot;background-color: transparent; color: light-dark(rgb(0, 0, 0), rgb(255, 255, 255));&quot;&gt;interrupt&lt;/span&gt;&lt;/div&gt;&lt;div&gt;&lt;br&gt;&lt;/div&gt;" style="text;html=1;align=left;verticalAlign=middle;resizable=0;points=[];autosize=1;strokeColor=default;fillColor=none;" parent="1" vertex="1">
          <mxGeometry x="610" y="360" width="80" height="140" as="geometry" />
        </mxCell>
        <mxCell id="e8xEAAWjOq9u1hy52Clf-1" value="Any exceptionis will trigger a change in the npc&lt;div&gt;This dictates what the next PC should be&lt;/div&gt;" style="text;align=left;verticalAlign=middle;resizable=0;points=[];autosize=1;strokeColor=default;fillColor=none;html=1;" vertex="1" parent="1">
          <mxGeometry x="390" y="515" width="270" height="40" as="geometry" />
        </mxCell>
        <mxCell id="e8xEAAWjOq9u1hy52Clf-2" value="" style="endArrow=none;dashed=1;html=1;dashPattern=1 3;strokeWidth=2;rounded=0;exitX=0.6;exitY=0;exitDx=0;exitDy=0;exitPerimeter=0;" edge="1" parent="1" source="e8xEAAWjOq9u1hy52Clf-1">
          <mxGeometry width="50" height="50" relative="1" as="geometry">
            <mxPoint x="530" y="400" as="sourcePoint" />
            <mxPoint x="580" y="350" as="targetPoint" />
          </mxGeometry>
        </mxCell>
      </root>
    </mxGraphModel>
  </diagram>
  <diagram name="Pipes - Mem" id="X1HuNd9X6nBgCB34b0gW">
    <mxGraphModel dx="4610" dy="2184" grid="1" gridSize="10" guides="1" tooltips="1" connect="1" arrows="1" fold="1" page="1" pageScale="1" pageWidth="850" pageHeight="1100" math="0" shadow="0">
      <root>
        <mxCell id="tOTTrnmlyu8bfDpusqEL-0" />
        <mxCell id="tOTTrnmlyu8bfDpusqEL-1" parent="tOTTrnmlyu8bfDpusqEL-0" />
        <mxCell id="tOTTrnmlyu8bfDpusqEL-2" value="" style="rounded=1;whiteSpace=wrap;html=1;" parent="tOTTrnmlyu8bfDpusqEL-1" vertex="1">
          <mxGeometry x="-480" y="70" width="350" height="450" as="geometry" />
        </mxCell>
        <mxCell id="tOTTrnmlyu8bfDpusqEL-6" value="c" style="endArrow=classic;html=1;rounded=0;entryX=0.102;entryY=0.152;entryDx=0;entryDy=0;entryPerimeter=0;" parent="tOTTrnmlyu8bfDpusqEL-1" edge="1">
          <mxGeometry width="50" height="50" relative="1" as="geometry">
            <mxPoint x="-620" y="250" as="sourcePoint" />
            <mxPoint x="-450" y="250" as="targetPoint" />
          </mxGeometry>
        </mxCell>
        <mxCell id="tOTTrnmlyu8bfDpusqEL-7" value="commit_pkt" style="edgeLabel;html=1;align=center;verticalAlign=middle;resizable=0;points=[];" parent="tOTTrnmlyu8bfDpusqEL-6" vertex="1" connectable="0">
          <mxGeometry x="-0.5176" y="3" relative="1" as="geometry">
            <mxPoint x="19" as="offset" />
          </mxGeometry>
        </mxCell>
        <mxCell id="tOTTrnmlyu8bfDpusqEL-9" value="" style="endArrow=classic;html=1;rounded=0;entryX=0.102;entryY=0.152;entryDx=0;entryDy=0;entryPerimeter=0;" parent="tOTTrnmlyu8bfDpusqEL-1" edge="1">
          <mxGeometry width="50" height="50" relative="1" as="geometry">
            <mxPoint x="-190" y="260" as="sourcePoint" />
            <mxPoint x="-20" y="260" as="targetPoint" />
          </mxGeometry>
        </mxCell>
        <mxCell id="tOTTrnmlyu8bfDpusqEL-10" value="late_wb_pkt" style="edgeLabel;html=1;align=center;verticalAlign=middle;resizable=0;points=[];" parent="tOTTrnmlyu8bfDpusqEL-9" vertex="1" connectable="0">
          <mxGeometry x="-0.5176" y="3" relative="1" as="geometry">
            <mxPoint x="19" as="offset" />
          </mxGeometry>
        </mxCell>
        <mxCell id="bLcrma6O5JSlqz0d0kPv-11" style="edgeStyle=orthogonalEdgeStyle;rounded=0;orthogonalLoop=1;jettySize=auto;html=1;" parent="tOTTrnmlyu8bfDpusqEL-1" source="tOTTrnmlyu8bfDpusqEL-15" target="2nIE_6h07vznabLZNZC9-3" edge="1">
          <mxGeometry relative="1" as="geometry" />
        </mxCell>
        <mxCell id="tOTTrnmlyu8bfDpusqEL-15" value="TLB Tag/Entry Write" style="rounded=1;whiteSpace=wrap;html=1;" parent="tOTTrnmlyu8bfDpusqEL-1" vertex="1">
          <mxGeometry x="-445" y="220" width="65" height="60" as="geometry" />
        </mxCell>
        <mxCell id="2nIE_6h07vznabLZNZC9-0" value="" style="endArrow=classic;html=1;rounded=0;" parent="tOTTrnmlyu8bfDpusqEL-1" edge="1">
          <mxGeometry width="50" height="50" relative="1" as="geometry">
            <mxPoint x="-620" y="141" as="sourcePoint" />
            <mxPoint x="-450" y="140" as="targetPoint" />
          </mxGeometry>
        </mxCell>
        <mxCell id="2nIE_6h07vznabLZNZC9-1" value="reservation" style="edgeLabel;html=1;align=center;verticalAlign=middle;resizable=0;points=[];" parent="2nIE_6h07vznabLZNZC9-0" vertex="1" connectable="0">
          <mxGeometry x="-0.5176" y="3" relative="1" as="geometry">
            <mxPoint x="19" as="offset" />
          </mxGeometry>
        </mxCell>
        <mxCell id="2nIE_6h07vznabLZNZC9-2" value="(aka, dispatch_pkt)" style="text;html=1;align=center;verticalAlign=middle;resizable=0;points=[];autosize=1;strokeColor=none;fillColor=none;" parent="tOTTrnmlyu8bfDpusqEL-1" vertex="1">
          <mxGeometry x="-630" y="140" width="120" height="30" as="geometry" />
        </mxCell>
        <mxCell id="2nIE_6h07vznabLZNZC9-3" value="MMU" style="rounded=1;whiteSpace=wrap;html=1;" parent="tOTTrnmlyu8bfDpusqEL-1" vertex="1">
          <mxGeometry x="-310" y="120" width="120" height="230" as="geometry" />
        </mxCell>
        <mxCell id="2nIE_6h07vznabLZNZC9-4" value="D$" style="rounded=1;whiteSpace=wrap;html=1;" parent="tOTTrnmlyu8bfDpusqEL-1" vertex="1">
          <mxGeometry x="-285" y="400" width="70" height="70" as="geometry" />
        </mxCell>
        <mxCell id="mlXZMlc_RPy-lpiSH98I-0" value="" style="edgeStyle=orthogonalEdgeStyle;rounded=0;orthogonalLoop=1;jettySize=auto;html=1;startArrow=classic;startFill=1;entryX=0.5;entryY=1;entryDx=0;entryDy=0;exitX=0.5;exitY=0;exitDx=0;exitDy=0;" parent="tOTTrnmlyu8bfDpusqEL-1" source="2nIE_6h07vznabLZNZC9-4" target="2nIE_6h07vznabLZNZC9-3" edge="1">
          <mxGeometry relative="1" as="geometry">
            <mxPoint x="-590" y="240" as="sourcePoint" />
            <mxPoint x="-560" y="240" as="targetPoint" />
          </mxGeometry>
        </mxCell>
        <mxCell id="bLcrma6O5JSlqz0d0kPv-0" value="" style="endArrow=classic;html=1;rounded=0;entryX=0.102;entryY=0.152;entryDx=0;entryDy=0;entryPerimeter=0;" parent="tOTTrnmlyu8bfDpusqEL-1" edge="1">
          <mxGeometry width="50" height="50" relative="1" as="geometry">
            <mxPoint x="-190" y="220" as="sourcePoint" />
            <mxPoint x="-20" y="220" as="targetPoint" />
          </mxGeometry>
        </mxCell>
        <mxCell id="bLcrma6O5JSlqz0d0kPv-1" value="final_data" style="edgeLabel;html=1;align=center;verticalAlign=middle;resizable=0;points=[];" parent="bLcrma6O5JSlqz0d0kPv-0" vertex="1" connectable="0">
          <mxGeometry x="-0.5176" y="3" relative="1" as="geometry">
            <mxPoint x="19" as="offset" />
          </mxGeometry>
        </mxCell>
        <mxCell id="bLcrma6O5JSlqz0d0kPv-2" value="" style="endArrow=classic;html=1;rounded=0;entryX=0.102;entryY=0.152;entryDx=0;entryDy=0;entryPerimeter=0;" parent="tOTTrnmlyu8bfDpusqEL-1" edge="1">
          <mxGeometry width="50" height="50" relative="1" as="geometry">
            <mxPoint x="-190" y="180" as="sourcePoint" />
            <mxPoint x="-20" y="180" as="targetPoint" />
          </mxGeometry>
        </mxCell>
        <mxCell id="bLcrma6O5JSlqz0d0kPv-3" value="early_data" style="edgeLabel;html=1;align=center;verticalAlign=middle;resizable=0;points=[];" parent="bLcrma6O5JSlqz0d0kPv-2" vertex="1" connectable="0">
          <mxGeometry x="-0.5176" y="3" relative="1" as="geometry">
            <mxPoint x="19" as="offset" />
          </mxGeometry>
        </mxCell>
        <mxCell id="bLcrma6O5JSlqz0d0kPv-5" value="" style="endArrow=classic;html=1;rounded=0;entryX=0.102;entryY=0.152;entryDx=0;entryDy=0;entryPerimeter=0;" parent="tOTTrnmlyu8bfDpusqEL-1" edge="1">
          <mxGeometry width="50" height="50" relative="1" as="geometry">
            <mxPoint x="-615" y="340" as="sourcePoint" />
            <mxPoint x="-445" y="340" as="targetPoint" />
          </mxGeometry>
        </mxCell>
        <mxCell id="bLcrma6O5JSlqz0d0kPv-6" value="trans_info" style="edgeLabel;html=1;align=center;verticalAlign=middle;resizable=0;points=[];" parent="bLcrma6O5JSlqz0d0kPv-5" vertex="1" connectable="0">
          <mxGeometry x="-0.5176" y="3" relative="1" as="geometry">
            <mxPoint x="14" y="3" as="offset" />
          </mxGeometry>
        </mxCell>
        <mxCell id="bLcrma6O5JSlqz0d0kPv-12" style="edgeStyle=orthogonalEdgeStyle;rounded=0;orthogonalLoop=1;jettySize=auto;html=1;entryX=0;entryY=0.75;entryDx=0;entryDy=0;" parent="tOTTrnmlyu8bfDpusqEL-1" source="bLcrma6O5JSlqz0d0kPv-7" target="2nIE_6h07vznabLZNZC9-3" edge="1">
          <mxGeometry relative="1" as="geometry" />
        </mxCell>
        <mxCell id="bLcrma6O5JSlqz0d0kPv-7" value="priv_mode&lt;div&gt;mstatus&lt;/div&gt;&lt;div&gt;translation_en&lt;/div&gt;" style="rounded=1;whiteSpace=wrap;html=1;" parent="tOTTrnmlyu8bfDpusqEL-1" vertex="1">
          <mxGeometry x="-445" y="310" width="95" height="60" as="geometry" />
        </mxCell>
        <mxCell id="bLcrma6O5JSlqz0d0kPv-8" value="All D$ misses are non-speculative&amp;nbsp;" style="text;html=1;align=center;verticalAlign=middle;resizable=0;points=[];autosize=1;strokeColor=none;fillColor=none;fontStyle=1" parent="tOTTrnmlyu8bfDpusqEL-1" vertex="1">
          <mxGeometry x="-350" y="470" width="210" height="30" as="geometry" />
        </mxCell>
        <mxCell id="bLcrma6O5JSlqz0d0kPv-10" style="edgeStyle=orthogonalEdgeStyle;rounded=0;orthogonalLoop=1;jettySize=auto;html=1;entryX=0;entryY=0.25;entryDx=0;entryDy=0;" parent="tOTTrnmlyu8bfDpusqEL-1" source="bLcrma6O5JSlqz0d0kPv-9" target="2nIE_6h07vznabLZNZC9-3" edge="1">
          <mxGeometry relative="1" as="geometry" />
        </mxCell>
        <mxCell id="bLcrma6O5JSlqz0d0kPv-9" value="dcache_pkt" style="rounded=1;whiteSpace=wrap;html=1;" parent="tOTTrnmlyu8bfDpusqEL-1" vertex="1">
          <mxGeometry x="-452.5" y="130" width="92.5" height="20" as="geometry" />
        </mxCell>
        <mxCell id="NZL8MzFlBkTpNpbqALGk-0" value="trans_info:&lt;div&gt;&lt;ul&gt;&lt;li&gt;&lt;span style=&quot;background-color: transparent; color: light-dark(rgb(0, 0, 0), rgb(255, 255, 255));&quot;&gt;priv_mode&lt;/span&gt;&lt;/li&gt;&lt;li&gt;&lt;span style=&quot;background-color: transparent; color: light-dark(rgb(0, 0, 0), rgb(255, 255, 255));&quot;&gt;base_ppn&lt;/span&gt;&lt;/li&gt;&lt;li&gt;satp&lt;/li&gt;&lt;li&gt;mstatus&lt;/li&gt;&lt;/ul&gt;&lt;/div&gt;" style="text;html=1;align=left;verticalAlign=middle;resizable=0;points=[];autosize=1;strokeColor=default;fillColor=none;" parent="tOTTrnmlyu8bfDpusqEL-1" vertex="1">
          <mxGeometry x="-770" y="355" width="120" height="110" as="geometry" />
        </mxCell>
        <mxCell id="NZL8MzFlBkTpNpbqALGk-1" value="&lt;span style=&quot;font-family: Helvetica; font-size: 12px; font-style: normal; font-variant-ligatures: normal; font-variant-caps: normal; font-weight: 400; letter-spacing: normal; orphans: 2; text-align: left; text-indent: 0px; text-transform: none; widows: 2; word-spacing: 0px; -webkit-text-stroke-width: 0px; white-space: nowrap; text-decoration-thickness: initial; text-decoration-style: initial; text-decoration-color: initial; float: none; display: inline !important;&quot;&gt;(satp: supverisor address translation and protection)&lt;/span&gt;" style="text;whiteSpace=wrap;html=1;fontColor=default;labelBackgroundColor=none;" parent="tOTTrnmlyu8bfDpusqEL-1" vertex="1">
          <mxGeometry x="-840" y="465" width="280" height="40" as="geometry" />
        </mxCell>
        <mxCell id="NZL8MzFlBkTpNpbqALGk-2" value="" style="endArrow=none;dashed=1;html=1;rounded=0;" parent="tOTTrnmlyu8bfDpusqEL-1" edge="1">
          <mxGeometry width="50" height="50" relative="1" as="geometry">
            <mxPoint x="-640" y="400" as="sourcePoint" />
            <mxPoint x="-590" y="350" as="targetPoint" />
          </mxGeometry>
        </mxCell>
      </root>
    </mxGraphModel>
  </diagram>
  <diagram id="FcSw0kOjeuOfoiHGe-0l" name="Privilege Fault">
    <mxGraphModel dx="1680" dy="989" grid="1" gridSize="10" guides="1" tooltips="1" connect="1" arrows="1" fold="1" page="1" pageScale="1" pageWidth="850" pageHeight="1100" math="0" shadow="0">
      <root>
        <mxCell id="0" />
        <mxCell id="1" parent="0" />
        <mxCell id="q7ZlQVfc987CqGFjz3qi-3" value="" style="edgeStyle=orthogonalEdgeStyle;rounded=0;orthogonalLoop=1;jettySize=auto;html=1;" edge="1" parent="1" source="q7ZlQVfc987CqGFjz3qi-1" target="q7ZlQVfc987CqGFjz3qi-2">
          <mxGeometry relative="1" as="geometry" />
        </mxCell>
        <mxCell id="q7ZlQVfc987CqGFjz3qi-1" value="Scheduler" style="rounded=1;whiteSpace=wrap;html=1;labelPosition=center;verticalLabelPosition=top;align=center;verticalAlign=bottom;" vertex="1" parent="1">
          <mxGeometry x="90" y="100" width="220" height="200" as="geometry" />
        </mxCell>
        <mxCell id="q7ZlQVfc987CqGFjz3qi-8" style="edgeStyle=orthogonalEdgeStyle;rounded=0;orthogonalLoop=1;jettySize=auto;html=1;entryX=0;entryY=0.5;entryDx=0;entryDy=0;" edge="1" parent="1" source="q7ZlQVfc987CqGFjz3qi-2" target="q7ZlQVfc987CqGFjz3qi-5">
          <mxGeometry relative="1" as="geometry" />
        </mxCell>
        <mxCell id="q7ZlQVfc987CqGFjz3qi-2" value="Memory Pipeline" style="rounded=1;whiteSpace=wrap;html=1;labelPosition=center;verticalLabelPosition=top;align=center;verticalAlign=bottom;" vertex="1" parent="1">
          <mxGeometry x="524.8299999999999" y="127.5" width="140" height="145" as="geometry" />
        </mxCell>
        <mxCell id="q7ZlQVfc987CqGFjz3qi-9" value="late_wb_pkt" style="edgeStyle=orthogonalEdgeStyle;rounded=0;orthogonalLoop=1;jettySize=auto;html=1;entryX=0;entryY=0.5;entryDx=0;entryDy=0;exitX=0.25;exitY=1;exitDx=0;exitDy=0;" edge="1" parent="1" source="q7ZlQVfc987CqGFjz3qi-2" target="q7ZlQVfc987CqGFjz3qi-1">
          <mxGeometry x="-0.3654" relative="1" as="geometry">
            <Array as="points">
              <mxPoint x="560" y="440" />
              <mxPoint x="70" y="440" />
              <mxPoint x="70" y="200" />
            </Array>
            <mxPoint as="offset" />
          </mxGeometry>
        </mxCell>
        <mxCell id="q7ZlQVfc987CqGFjz3qi-24" value="commit_pkt" style="edgeStyle=orthogonalEdgeStyle;rounded=0;orthogonalLoop=1;jettySize=auto;html=1;entryX=0;entryY=0.5;entryDx=0;entryDy=0;" edge="1" parent="1" source="q7ZlQVfc987CqGFjz3qi-5" target="q7ZlQVfc987CqGFjz3qi-1">
          <mxGeometry x="-0.3874" relative="1" as="geometry">
            <Array as="points">
              <mxPoint x="710" y="580" />
              <mxPoint x="70" y="580" />
              <mxPoint x="70" y="200" />
            </Array>
            <mxPoint as="offset" />
          </mxGeometry>
        </mxCell>
        <mxCell id="q7ZlQVfc987CqGFjz3qi-5" value="System Pipeline" style="rounded=1;whiteSpace=wrap;html=1;labelPosition=center;verticalLabelPosition=top;align=center;verticalAlign=bottom;" vertex="1" parent="1">
          <mxGeometry x="640" y="380" width="140" height="130" as="geometry" />
        </mxCell>
        <mxCell id="q7ZlQVfc987CqGFjz3qi-11" value="Page Table Reads" style="edgeStyle=orthogonalEdgeStyle;rounded=0;orthogonalLoop=1;jettySize=auto;html=1;entryX=1;entryY=0.5;entryDx=0;entryDy=0;exitX=1;exitY=0.5;exitDx=0;exitDy=0;" edge="1" parent="1" source="q7ZlQVfc987CqGFjz3qi-7" target="q7ZlQVfc987CqGFjz3qi-1">
          <mxGeometry x="0.0909" y="10" relative="1" as="geometry">
            <Array as="points">
              <mxPoint x="240" y="200" />
              <mxPoint x="240" y="200" />
            </Array>
            <mxPoint as="offset" />
          </mxGeometry>
        </mxCell>
        <mxCell id="q7ZlQVfc987CqGFjz3qi-7" value="PTW (Page Table Walker)" style="rounded=1;whiteSpace=wrap;html=1;labelPosition=center;verticalLabelPosition=top;align=center;verticalAlign=bottom;" vertex="1" parent="1">
          <mxGeometry x="110" y="175" width="90" height="50" as="geometry" />
        </mxCell>
        <mxCell id="q7ZlQVfc987CqGFjz3qi-10" value="" style="endArrow=classic;html=1;rounded=0;exitX=0;exitY=0.5;exitDx=0;exitDy=0;entryX=0;entryY=0.5;entryDx=0;entryDy=0;" edge="1" parent="1" source="q7ZlQVfc987CqGFjz3qi-1" target="q7ZlQVfc987CqGFjz3qi-7">
          <mxGeometry width="50" height="50" relative="1" as="geometry">
            <mxPoint x="100" y="200" as="sourcePoint" />
            <mxPoint x="150" y="150" as="targetPoint" />
            <Array as="points">
              <mxPoint x="110" y="200" />
            </Array>
          </mxGeometry>
        </mxCell>
        <mxCell id="q7ZlQVfc987CqGFjz3qi-12" value="MMU" style="rounded=1;whiteSpace=wrap;html=1;labelPosition=center;verticalLabelPosition=top;align=center;verticalAlign=bottom;" vertex="1" parent="1">
          <mxGeometry x="569.74" y="175" width="50.17" height="50" as="geometry" />
        </mxCell>
        <mxCell id="q7ZlQVfc987CqGFjz3qi-13" value="" style="endArrow=classic;html=1;rounded=0;exitX=0;exitY=0.5;exitDx=0;exitDy=0;entryX=0;entryY=0.5;entryDx=0;entryDy=0;" edge="1" parent="1" source="q7ZlQVfc987CqGFjz3qi-2" target="q7ZlQVfc987CqGFjz3qi-12">
          <mxGeometry width="50" height="50" relative="1" as="geometry">
            <mxPoint x="504.83" y="320" as="sourcePoint" />
            <mxPoint x="554.8299999999999" y="270" as="targetPoint" />
          </mxGeometry>
        </mxCell>
        <mxCell id="q7ZlQVfc987CqGFjz3qi-14" value="" style="endArrow=classic;html=1;rounded=0;exitX=0.5;exitY=1;exitDx=0;exitDy=0;entryX=0.5;entryY=1;entryDx=0;entryDy=0;" edge="1" parent="1" source="q7ZlQVfc987CqGFjz3qi-12" target="q7ZlQVfc987CqGFjz3qi-2">
          <mxGeometry width="50" height="50" relative="1" as="geometry">
            <mxPoint x="544.8299999999999" y="350" as="sourcePoint" />
            <mxPoint x="594.8299999999999" y="270" as="targetPoint" />
          </mxGeometry>
        </mxCell>
        <mxCell id="q7ZlQVfc987CqGFjz3qi-15" value="1. Memory Inst Dispatched (ld/st)" style="text;html=1;align=center;verticalAlign=middle;resizable=0;points=[];autosize=1;strokeColor=none;fillColor=none;" vertex="1" parent="1">
          <mxGeometry x="315" y="130" width="200" height="30" as="geometry" />
        </mxCell>
        <mxCell id="q7ZlQVfc987CqGFjz3qi-16" value="2. MMU checks TLB" style="text;html=1;align=center;verticalAlign=middle;resizable=0;points=[];autosize=1;strokeColor=none;fillColor=none;" vertex="1" parent="1">
          <mxGeometry x="664.8299999999999" y="175" width="130" height="30" as="geometry" />
        </mxCell>
        <mxCell id="q7ZlQVfc987CqGFjz3qi-18" value="3. TLB Miss (Exception)" style="text;html=1;align=center;verticalAlign=middle;resizable=0;points=[];autosize=1;strokeColor=none;fillColor=none;" vertex="1" parent="1">
          <mxGeometry x="589.9999999999999" y="315" width="150" height="30" as="geometry" />
        </mxCell>
        <mxCell id="q7ZlQVfc987CqGFjz3qi-19" value="CSR" style="rounded=1;whiteSpace=wrap;html=1;labelPosition=center;verticalLabelPosition=top;align=center;verticalAlign=bottom;" vertex="1" parent="1">
          <mxGeometry x="680" y="420" width="50.17" height="50" as="geometry" />
        </mxCell>
        <mxCell id="q7ZlQVfc987CqGFjz3qi-20" value="4. Exception triggered&lt;div&gt;Flush Pipeline&lt;/div&gt;" style="text;html=1;align=center;verticalAlign=middle;resizable=0;points=[];autosize=1;strokeColor=none;fillColor=none;" vertex="1" parent="1">
          <mxGeometry x="779.9999999999999" y="430" width="140" height="40" as="geometry" />
        </mxCell>
        <mxCell id="q7ZlQVfc987CqGFjz3qi-21" value="5. Page Table Walker initiates walk" style="text;html=1;align=center;verticalAlign=middle;resizable=0;points=[];autosize=1;strokeColor=none;fillColor=none;" vertex="1" parent="1">
          <mxGeometry x="69.99999999999989" y="315" width="210" height="30" as="geometry" />
        </mxCell>
        <mxCell id="q7ZlQVfc987CqGFjz3qi-22" value="6. Memory Inst Dispatched for PTW" style="text;html=1;align=center;verticalAlign=middle;resizable=0;points=[];autosize=1;strokeColor=none;fillColor=none;" vertex="1" parent="1">
          <mxGeometry x="310" y="160" width="210" height="30" as="geometry" />
        </mxCell>
        <mxCell id="q7ZlQVfc987CqGFjz3qi-23" value="7. Send PTW read address and data from dcache" style="text;html=1;align=center;verticalAlign=middle;resizable=0;points=[];autosize=1;strokeColor=none;fillColor=none;" vertex="1" parent="1">
          <mxGeometry x="269.99999999999994" y="450" width="290" height="30" as="geometry" />
        </mxCell>
        <mxCell id="q7ZlQVfc987CqGFjz3qi-26" value="8. PTW determines privilege faults, otherwise, TLB Fill" style="text;html=1;align=center;verticalAlign=middle;resizable=0;points=[];autosize=1;strokeColor=none;fillColor=none;" vertex="1" parent="1">
          <mxGeometry x="69.99999999999989" y="345" width="310" height="30" as="geometry" />
        </mxCell>
      </root>
    </mxGraphModel>
  </diagram>
  <diagram id="OEHgaWofTR-byT5ZXfdL" name="Co-Simulation">
    <mxGraphModel dx="1190" dy="701" grid="1" gridSize="10" guides="1" tooltips="1" connect="1" arrows="1" fold="1" page="1" pageScale="1" pageWidth="850" pageHeight="1100" math="0" shadow="0">
      <root>
        <mxCell id="0" />
        <mxCell id="1" parent="0" />
        <mxCell id="1Al8bsjop0fqvJ_nw2Pv-15" style="edgeStyle=orthogonalEdgeStyle;rounded=0;orthogonalLoop=1;jettySize=auto;html=1;" edge="1" parent="1" source="1Al8bsjop0fqvJ_nw2Pv-2" target="1Al8bsjop0fqvJ_nw2Pv-13">
          <mxGeometry relative="1" as="geometry" />
        </mxCell>
        <mxCell id="1Al8bsjop0fqvJ_nw2Pv-2" value="Dromajo&lt;br&gt;RISC-V RV64GC&lt;br&gt;Emulator&amp;nbsp;" style="rounded=1;whiteSpace=wrap;html=1;" vertex="1" parent="1">
          <mxGeometry x="250" y="170" width="120" height="60" as="geometry" />
        </mxCell>
        <mxCell id="1Al8bsjop0fqvJ_nw2Pv-16" style="edgeStyle=orthogonalEdgeStyle;rounded=0;orthogonalLoop=1;jettySize=auto;html=1;" edge="1" parent="1" source="1Al8bsjop0fqvJ_nw2Pv-3" target="1Al8bsjop0fqvJ_nw2Pv-14">
          <mxGeometry relative="1" as="geometry" />
        </mxCell>
        <mxCell id="1Al8bsjop0fqvJ_nw2Pv-3" value="Verilator&lt;div&gt;&lt;span style=&quot;-webkit-line-clamp:6&quot; id=&quot;_ROcQaNGsIZDbptQP64W94Ac_155&quot; class=&quot;wtBS9&quot;&gt;Cycle-Accurate Behavioral Model&amp;nbsp;&lt;/span&gt;&lt;/div&gt;" style="rounded=1;whiteSpace=wrap;html=1;" vertex="1" parent="1">
          <mxGeometry x="410" y="170" width="120" height="60" as="geometry" />
        </mxCell>
        <mxCell id="1Al8bsjop0fqvJ_nw2Pv-8" style="edgeStyle=orthogonalEdgeStyle;rounded=0;orthogonalLoop=1;jettySize=auto;html=1;" edge="1" parent="1" source="1Al8bsjop0fqvJ_nw2Pv-4" target="1Al8bsjop0fqvJ_nw2Pv-3">
          <mxGeometry relative="1" as="geometry" />
        </mxCell>
        <mxCell id="1Al8bsjop0fqvJ_nw2Pv-4" value="RTL Design" style="rounded=0;whiteSpace=wrap;html=1;" vertex="1" parent="1">
          <mxGeometry x="410" y="10" width="120" height="60" as="geometry" />
        </mxCell>
        <mxCell id="1Al8bsjop0fqvJ_nw2Pv-7" value="" style="edgeStyle=orthogonalEdgeStyle;rounded=0;orthogonalLoop=1;jettySize=auto;html=1;" edge="1" parent="1" source="1Al8bsjop0fqvJ_nw2Pv-5" target="1Al8bsjop0fqvJ_nw2Pv-6">
          <mxGeometry relative="1" as="geometry" />
        </mxCell>
        <mxCell id="1Al8bsjop0fqvJ_nw2Pv-5" value="Software" style="rounded=0;whiteSpace=wrap;html=1;" vertex="1" parent="1">
          <mxGeometry x="250" y="10" width="120" height="60" as="geometry" />
        </mxCell>
        <mxCell id="1Al8bsjop0fqvJ_nw2Pv-9" style="edgeStyle=orthogonalEdgeStyle;rounded=0;orthogonalLoop=1;jettySize=auto;html=1;entryX=0.5;entryY=0;entryDx=0;entryDy=0;" edge="1" parent="1" source="1Al8bsjop0fqvJ_nw2Pv-6" target="1Al8bsjop0fqvJ_nw2Pv-2">
          <mxGeometry relative="1" as="geometry" />
        </mxCell>
        <mxCell id="1Al8bsjop0fqvJ_nw2Pv-10" style="edgeStyle=orthogonalEdgeStyle;rounded=0;orthogonalLoop=1;jettySize=auto;html=1;entryX=0.25;entryY=0;entryDx=0;entryDy=0;" edge="1" parent="1" source="1Al8bsjop0fqvJ_nw2Pv-6" target="1Al8bsjop0fqvJ_nw2Pv-3">
          <mxGeometry relative="1" as="geometry" />
        </mxCell>
        <mxCell id="1Al8bsjop0fqvJ_nw2Pv-6" value="riscv compiler" style="rounded=0;whiteSpace=wrap;html=1;" vertex="1" parent="1">
          <mxGeometry x="265" y="90" width="90" height="40" as="geometry" />
        </mxCell>
        <mxCell id="1Al8bsjop0fqvJ_nw2Pv-13" value="&lt;span style=&quot;font-family: &amp;quot;gg mono&amp;quot;, &amp;quot;Source Code Pro&amp;quot;, Consolas, &amp;quot;Andale Mono WT&amp;quot;, &amp;quot;Andale Mono&amp;quot;, &amp;quot;Lucida Console&amp;quot;, &amp;quot;Lucida Sans Typewriter&amp;quot;, &amp;quot;DejaVu Sans Mono&amp;quot;, &amp;quot;Bitstream Vera Sans Mono&amp;quot;, &amp;quot;Liberation Mono&amp;quot;, &amp;quot;Nimbus Mono L&amp;quot;, Monaco, &amp;quot;Courier New&amp;quot;, Courier, monospace; font-style: normal; font-variant-ligatures: normal; font-variant-caps: normal; font-weight: 400; letter-spacing: normal; orphans: 2; text-align: left; text-indent: 0px; text-transform: none; widows: 2; word-spacing: 0px; -webkit-text-stroke-width: 0px; white-space: pre-wrap; text-decoration-thickness: initial; text-decoration-style: initial; text-decoration-color: initial; float: none; display: inline !important;&quot;&gt;&lt;font style=&quot;color: rgb(0, 0, 0); font-size: 10px;&quot;&gt;0x0000000080400000 &amp;lt;- address of &quot;secret&quot;&lt;br&gt;0x000000008badf00d &amp;lt;- value of our &quot;secret&quot;&lt;br&gt;Executing user program&lt;br&gt;0x000000008badf00d &amp;lt;- user program can read secret&lt;br&gt;0x00000000deadbeef &amp;lt;- user program changes secret&lt;br&gt;Changing page table entry &amp;lt;- mysterious event changes PTE&lt;br&gt;priv page fault &amp;lt;- User fails to read&lt;br&gt;pc: 0x00000000800002f8&lt;br&gt;cause: 0x000000000000000d&lt;br&gt;tval: 0x0000000080400000&lt;/font&gt;&lt;/span&gt;" style="text;whiteSpace=wrap;html=1;labelBackgroundColor=default;textShadow=1;" vertex="1" parent="1">
          <mxGeometry x="80" y="280" width="330" height="150" as="geometry" />
        </mxCell>
        <mxCell id="1Al8bsjop0fqvJ_nw2Pv-14" value="&lt;font face=&quot;gg mono, Source Code Pro, Consolas, Andale Mono WT, Andale Mono, Lucida Console, Lucida Sans Typewriter, DejaVu Sans Mono, Bitstream Vera Sans Mono, Liberation Mono, Nimbus Mono L, Monaco, Courier New, Courier, monospace&quot;&gt;&lt;span style=&quot;font-size: 10px; white-space-collapse: preserve;&quot;&gt;0x0000000080400000 &amp;lt;- address of &quot;secret&quot;&lt;br&gt;0x000000008badf00d &amp;lt;- value of our &quot;secret&quot;&lt;br&gt;Executing user program&lt;br&gt;0x000000008badf00d &amp;lt;- user program can read secret&lt;br&gt;0x00000000deadbeef &amp;lt;- user program changes secret&lt;br&gt;Changing page table entry &amp;lt;- mysterious event changes PTE&lt;br&gt;0x00000000deadbeef &amp;lt;- user program can read again&lt;br&gt;0x0000000099999999 &amp;lt;- user program changes secret&lt;/span&gt;&lt;/font&gt;" style="text;whiteSpace=wrap;html=1;labelBackgroundColor=default;textShadow=1;" vertex="1" parent="1">
          <mxGeometry x="410" y="280" width="325" height="130" as="geometry" />
        </mxCell>
      </root>
    </mxGraphModel>
  </diagram>
</mxfile>
